<svg xmlns:xlink="http://www.w3.org/1999/xlink" viewBox="0 0 579927 209782" style="shape-rendering:geometricPrecision; text-rendering:geometricPrecision; image-rendering:optimizeQuality; fill-rule:evenodd; clip-rule:evenodd" version="1.1" height="337.57mm" width="933.188mm" xml:space="preserve" xmlns="http://www.w3.org/2000/svg">
 <defs>
  <style type="text/css">
   path{fill-rule:evenodd;}
    .fil0 {fill:#96989A}
    .fil5 {fill:#ED3237}
    .fil2 {fill:#FEFEFE}
    .fil1 {fill:black}
    .fil6 {fill:#1A1A1A}
    .fil4 {fill:#B4AEAB}
    .fil3 {fill:#CE0C1C}
    .fil7 {fill:black;fill-rule:nonzero}
   
  </style>
 </defs>
 <g id="Layer_x0020_1">
  <metadata id="CorelCorpID_0Corel-Layer"/>
  <path d="M196975 166992c-16564,-567 -46728,-1700 -78810,-4228 -32082,-2529 -66082,-6451 -84303,-8631 -18221,-2179 -20662,-2615 -22100,-2397 -1439,218 -1874,1089 -1569,1569 305,479 1351,566 17087,4054 15736,3487 46161,10374 74669,16477 28508,6102 55098,11420 69090,14210 13992,2789 15387,3051 21621,3356 6233,305 17305,654 25587,654 8282,0 13774,-349 17131,-654 3356,-305 4576,-567 8761,-3487 4185,-2920 11334,-8500 15779,-12118 4447,-3618 6191,-5274 7062,-6233 872,-959 872,-1221 610,-1351 -261,-131 -784,-131 -1656,-131 -872,0 -2092,0 -9895,-88 -7802,-87 -22187,-261 -30861,-348 -8675,-87 -11639,-87 -28203,-654z" class="fil0"/>
  <path d="M160665 194969c-567,-488 -1874,-765 -12772,-3075 -10897,-2311 -31385,-6654 -50739,-11223 -19353,-4569 -37574,-9363 -48689,-12371 -11116,-3008 -15126,-4228 -17393,-4665 -2266,-435 -2789,-87 -2353,437 435,523 1830,1220 16956,8194 15126,6975 43982,20226 58890,27113 14907,6888 15866,7411 17523,7236 1656,-174 4010,-1046 10592,-2790 6582,-1743 17392,-4359 22885,-6015 5492,-1656 5667,-2354 5100,-2841z" class="fil1"/>
  <path d="M321937 41333c-272,443 116,616 458,702 1282,327 2564,653 3845,979 337,85 722,166 947,432 381,446 182,1246 -509,1262 -7962,189 -17486,465 -23911,350 -4628,-83 -8714,-91 -12258,-25 -1570,30 -3298,-134 -4715,-135 -7880,-4 -15761,-6 -23642,-5 -879,0 -1752,-9 -2621,-28 -5332,-111 -10664,-229 -15995,-356 -937,-21 -2094,-637 -1483,-1767 487,-903 918,-1833 1881,-2314 2097,-1048 3858,-1907 5284,-2576 487,-229 943,-276 1534,-259 6953,201 14318,370 20546,280 4705,-68 9752,-150 14470,-3 5046,158 9990,25 13953,105 2546,53 4754,68 6624,46 5392,-61 10783,-175 16173,-341 736,-23 1622,228 1005,1161 -543,822 -1071,1653 -1586,2492z" class="fil1"/>
  <path d="M248838 42328l4905 -2386c43,-22 95,-33 147,-33l5821 128c1,0 1,0 1,0 41,0 74,-32 75,-73l22 -1173c0,-43 -22,-66 -65,-69 -3322,-157 -6263,-202 -9377,-240 -202,-2 -394,41 -577,127 -1937,925 -3869,1865 -5796,2821 -43,22 -77,54 -99,96l-1042 1941c-26,49 -12,75 43,78 2205,118 4518,124 6605,190 7097,220 14197,323 21298,310 529,0 1128,-50 1689,-221 1187,-365 2368,-731 3545,-1098 75,-24 124,-92 123,-169l21 -3699c0,-45 -36,-81 -81,-81l-15501 -26c-46,0 -70,22 -70,68l-88 3788c-1,38 -21,57 -59,56l-11526 -270c0,0 -1,0 -1,0 -19,0 -34,-15 -34,-34 0,-14 8,-26 21,-31l0 0zm16623 -384l6416 9c104,0 107,16 9,50 -1022,345 -2054,664 -3166,682 -1224,20 -2491,23 -3802,9 -1,0 -1,0 -1,0 -67,-1 -120,-56 -119,-124 0,0 0,0 0,0l49 -2395c1,-39 20,-58 59,-58l7031 -17c48,0 49,8 6,24 -827,299 -1925,809 -2811,827 -1079,20 -2158,23 -3237,6 -52,-1 -89,22 -110,70l-379 831c-25,57 -7,86 55,86z" class="fil2"/>
  <path d="M281874 46225c8618,165 17217,175 25834,165 233,0 500,17 802,51 660,75 943,635 498,1186 -1617,1999 -3226,4004 -4827,6015 -325,407 -528,508 -1080,509 -14317,30 -28642,-145 -42951,-639 -2588,-89 -5176,-172 -7764,-248 -548,-15 -884,-253 -1007,-714 -13,-49 -10,-96 9,-141 72,-168 174,-320 304,-456 1838,-1916 3687,-3824 5544,-5723 388,-397 846,-588 1373,-573 7754,236 15509,418 23265,568z" class="fil1"/>
  <path d="M316467 40024l-5412 147c-46,2 -69,25 -68,71l5 3880c0,29 -23,52 -51,52l-4309 0c-52,0 -80,-27 -81,-79l-30 -5108c5,-39 27,-58 66,-58l15927 -345c78,-1 95,30 52,95l-1227 1875c-23,33 -60,53 -101,53 -5,0 -11,0 -16,-1 -122,-17 -2661,974 -2839,1078 -17,9 -27,27 -27,46 0,24 16,46 40,51l7549 1993c112,30 110,50 -5,60 -2373,218 -4836,106 -7222,143 -271,5 -508,-8 -779,-86 -2000,-578 -3994,-1182 -5984,-1814 -50,-15 -84,-61 -84,-114 0,-14 3,-29 8,-43l319 -821c17,-44 49,-67 97,-69 795,-19 1588,-36 2378,-52 731,-14 1286,-386 1840,-828 111,-88 96,-130 -46,-126z" class="fil3"/>
  <path d="M277251 38757l3394 24c35,0 62,29 62,63l-35 5115c-1,35 -29,63 -64,63l-3393 -24c-35,0 -63,-29 -62,-63l35 -5115c1,-35 29,-63 64,-63z" class="fil4"/>
  <path d="M289555 42669l58 -427c0,-3 1,-6 1,-9 0,-36 -29,-65 -65,-65l-7822 -74c-36,0 -64,-30 -64,-65 0,0 0,0 0,0l50 -3213c0,0 0,0 0,0 0,-36 29,-65 65,-65 1,0 1,0 1,0l11305 77c36,0 65,29 65,66l-42 5100c0,36 -29,66 -65,66l-11303 -65c-36,0 -66,-29 -66,-65l0 -1183c0,-36 30,-66 66,-66l7751 45c0,0 0,0 0,0 33,0 61,-24 65,-57zm46 -2496c0,0 0,0 0,0 0,-27 -21,-49 -48,-49l-4268 -37c0,0 0,0 0,0 -27,0 -49,21 -49,48l-8 980c0,0 0,0 0,0 0,27 21,49 48,49l4268 37c0,0 0,0 0,0 27,0 49,-21 49,-48l8 -980z" class="fil4"/>
  <path d="M305634 44116c0,29 -23,52 -52,52 0,0 0,0 0,0l-11540 -60c-29,0 -52,-24 -52,-53 0,0 0,0 0,0l27 -5146c0,-29 23,-52 52,-52 0,0 0,0 1,0l11539 60c29,0 52,24 52,53 0,0 0,0 0,0l-27 5146zm-3509 -3839c0,0 0,0 0,0 0,-19 -16,-35 -36,-35l-4485 -32c-1,0 -1,0 -1,0 -19,0 -35,16 -35,35l-18 2511c0,0 0,0 0,0 0,19 16,35 35,35l4486 32c0,0 1,0 1,0 19,0 35,-16 35,-35l18 -2511z" class="fil4"/>
  <path d="M267234 47032c143,242 85,501 -175,778 -886,945 -2153,1260 -3419,1217 -1562,-55 -3126,-104 -4691,-146 -49,-1 -90,16 -123,51l-1528 1578c-31,34 -70,49 -115,48l-2864 -107c-71,-2 -81,-28 -29,-78 1327,-1259 2659,-2508 3993,-3749 316,-293 617,-376 1075,-364 2076,54 4152,116 6228,186 494,17 1374,122 1648,586zm-2983 254c-1045,-82 -2084,-124 -3114,-126 -514,0 -828,218 -1106,606 -52,72 -34,111 56,118 1254,74 2483,91 3687,52 378,-13 569,-194 575,-542 0,-1 0,-2 0,-2 0,-56 -42,-102 -98,-106l0 0z" class="fil4"/>
  <path d="M273839 49288l-2552 -87c-47,-1 -54,-19 -21,-52 311,-325 816,-854 1297,-838 1578,51 3210,-41 4779,93 65,6 74,31 28,77l-2533 2529c-29,30 -72,48 -117,47l-9363 -230c-35,0 -63,-29 -63,-64 0,-18 8,-35 21,-47 1007,-955 2015,-1926 3025,-2914 984,-963 2626,-1136 3941,-1153 2108,-26 4269,12 6484,113 100,4 113,41 41,109l-777 735c-38,35 -82,51 -134,50 -2230,-86 -4062,-135 -5496,-147 -611,-6 -1150,206 -1617,638 -586,541 -1184,1089 -1795,1643 -12,11 -19,28 -19,44 0,34 27,61 60,62l4185 44c41,2 83,-15 115,-45l540 -528c50,-50 41,-76 -29,-79z" class="fil4"/>
  <path d="M286841 49161c-1279,533 -2578,1060 -3836,1639 -581,267 -1173,393 -1776,379 -141,-6 -266,-80 -335,-199l-975 -1629c-1,-2 -2,-5 -4,-7 -22,-28 -62,-33 -89,-12 -2,2 -4,4 -6,6l-1747 1728c-42,42 -93,62 -153,61l-1293 -26c0,0 -1,0 -1,0 -13,0 -23,-10 -23,-22 0,-6 3,-12 7,-16l3938 -4353c28,-32 53,-30 76,5l1980 3068c23,37 56,47 97,32 312,-123 622,-260 927,-412 1551,-772 3107,-1533 4669,-2283 657,-316 2426,-141 3196,-113 61,2 71,25 29,69l-3997 4137c-34,35 -81,54 -130,53l-2230 -36c-49,-1 -57,-20 -25,-57l1738 -1961c62,-71 50,-88 -37,-51z" class="fil4"/>
  <path d="M297844 48460l4529 9c100,1 115,36 43,106l-866 844c-36,34 -78,51 -127,51l-4456 4c-62,-1 -125,27 -170,76 -466,521 -901,1030 -1305,1525 -151,184 -349,272 -592,263 -687,-27 -1346,-38 -1979,-34 -76,0 -90,-29 -41,-89 947,-1166 1879,-2265 2794,-3296 715,-805 2837,-1021 3848,-1035 1497,-22 2994,-30 4491,-24 87,0 99,31 38,93l-849 851c-29,29 -65,44 -107,43 -1190,-20 -2381,-22 -3573,-4 -671,10 -1236,199 -1697,565 -44,34 -38,52 19,52z" class="fil4"/>
  <path d="M305627 46877l2680 5c0,0 0,0 1,0 25,0 46,21 46,46 0,11 -4,21 -11,29l-3435 4286c-8,10 -21,16 -34,17l-2691 43c0,0 -1,0 -1,0 -25,0 -46,-21 -46,-46 0,-10 4,-21 10,-29l3445 -4334c8,-11 22,-17 35,-17 1,0 1,0 1,0l0 0z" class="fil4"/>
  <path d="M290473 49811c131,-241 445,-720 657,-865 34,-24 72,-35 113,-34l1769 35c42,1 50,18 23,50l-651 810c-26,32 -60,49 -103,50l-1769 18c-50,0 -63,-21 -39,-64z" class="fil4"/>
  <path d="M289203 51972c46,-77 92,-155 138,-232l16 -27 32 0c1081,7 2161,11 3241,15l102 0 -54 86c-65,103 -127,207 -189,312l-17 28 -32 0c-420,-2 -841,-3 -1262,-5 -140,231 -283,460 -420,693 -142,241 -291,478 -433,719l-16 28 -33 0c-216,-2 -433,-4 -649,-6l-98 0 50 -85c142,-239 287,-478 428,-718 126,-213 257,-423 386,-635 -397,-2 -793,-5 -1190,-8l-52 0c-13,27 -27,52 -40,74 -34,55 -70,108 -101,164l-15 26 -29 3c-232,20 -463,40 -694,60l-110 10 57 -95c50,-83 99,-165 150,-247 -545,-4 -1089,-9 -1634,-14 -108,174 -213,349 -318,525 -94,155 -187,311 -281,467 544,6 1088,11 1632,16 70,-116 140,-233 213,-348l20 -31 36 5c200,30 400,60 601,89l86 13 -47 74c-43,67 -82,136 -123,205 -89,148 -209,278 -370,347 -181,78 -430,89 -624,87 -559,-6 -1118,-12 -1678,-18 -136,-1 -439,-6 -542,-108 -108,-106 -19,-290 44,-396 91,-153 186,-306 278,-459 94,-154 189,-306 283,-460 88,-143 205,-276 361,-345 180,-79 439,-88 633,-87 559,6 1118,10 1678,14 136,1 427,6 533,106 45,44 58,100 53,158zm-30102 -529c-71,116 -141,231 -212,347 362,14 723,28 1084,43l97 3 -52 83c-65,103 -127,209 -189,314l-17 29 -33 -1c-384,-15 -768,-30 -1152,-45 -63,100 -124,201 -185,302 -66,109 -132,219 -198,329l-17 29 -34 -1c-216,-9 -432,-17 -649,-25l-94 -3 48 -82c172,-290 348,-579 521,-869 173,-292 353,-579 530,-869l17 -28 34 2c947,38 1895,76 2843,112l97 3 -51 82c-62,101 -124,201 -185,302l-18 28 -32 -1c-718,-27 -1436,-55 -2153,-84zm2411 1107c579,20 1157,41 1735,60 135,-224 271,-449 407,-673 142,-235 288,-468 433,-701l17 -28 33 1c218,8 435,15 653,23l98 3 -52 83c-136,218 -273,437 -406,658 -133,220 -268,439 -402,659 -89,146 -205,273 -366,340 -179,74 -437,79 -629,73 -591,-20 -1183,-41 -1775,-62 -138,-5 -432,-18 -536,-121 -112,-110 -22,-289 44,-397 133,-220 265,-441 397,-661 134,-222 270,-442 407,-661l17 -28 33 1c218,8 436,16 653,25l97 3 -51 83c-145,232 -290,465 -432,700 -125,207 -250,413 -375,620zm4588 -863c-57,92 -114,183 -170,274 400,12 800,24 1200,36l99 3 -53 83c-61,97 -122,194 -180,293l-17 29 -33 -1c-420,-13 -841,-25 -1261,-38 -66,105 -131,211 -197,316 717,23 1433,44 2150,64l97 3 -50 83c-66,108 -133,216 -199,324l-17 28 -33 -1c-967,-28 -1934,-57 -2901,-88l-96 -3 49 -82c173,-289 353,-573 526,-862 173,-290 353,-575 530,-862l17 -28 33 1c958,30 1916,59 2874,89l99 3 -53 83c-61,96 -118,194 -175,292l-17 29 -34 -1c-729,-22 -1459,-44 -2188,-67zm2867 1097c670,18 1340,36 2009,54l98 2 -51 83c-66,108 -133,216 -199,324l-17 28 -32 -1c-920,-24 -1840,-48 -2760,-74l-97 -3 50 -82c173,-289 352,-573 525,-861 174,-290 354,-575 531,-863l17 -27 32 0c218,7 436,13 654,19l98 3 -52 83c-145,232 -290,464 -432,699 -125,205 -250,411 -374,616zm5299 -1286c218,4 436,9 653,13l99 2 -52 84c-176,287 -356,573 -529,862 -173,289 -353,574 -526,862l-17 28 -32 0c-218,-5 -436,-11 -654,-16l-97 -3 50 -82c173,-289 352,-573 526,-862 173,-289 353,-574 530,-862l17 -27 32 1zm3446 1244c22,-44 43,-88 67,-131 17,-32 35,-63 54,-95 89,-152 184,-300 273,-453 90,-154 186,-303 279,-455l17 -28 32 1c196,4 392,7 588,11l98 1 -51 84c-177,288 -357,574 -530,864 -173,289 -352,575 -525,864l-17 28 -33 -1c-149,-2 -297,-5 -446,-8l-18 0 -15 -12c-237,-183 -472,-367 -707,-553 -235,-184 -470,-367 -703,-555 -31,-24 -58,-52 -87,-79 -3,-3 -7,-6 -10,-10 -12,26 -25,52 -38,77 -22,44 -47,86 -73,128 -97,154 -193,309 -287,465 -93,156 -189,310 -282,466l-17 28 -33 -1c-196,-4 -391,-7 -587,-12l-97 -2 50 -83c173,-289 352,-574 525,-863 174,-289 354,-575 531,-863l16 -27 33 0c148,3 297,7 446,10l18 0 15 12c225,176 450,353 676,529 226,177 451,354 679,527 43,32 85,66 124,102 12,11 24,23 35,34zm1724 276c384,7 768,12 1152,18 136,-225 275,-449 411,-675 143,-236 288,-470 433,-704l17 -27 32 0c217,4 433,7 649,10l100 2 -53 84c-136,220 -272,440 -406,661 -132,221 -264,442 -397,662 -90,147 -210,274 -371,343 -177,76 -433,85 -623,82 -402,-6 -804,-13 -1206,-20 -137,-3 -431,-10 -537,-111 -112,-108 -21,-288 44,-395 73,-121 146,-240 221,-359l15 -24 28 -3c234,-21 468,-43 702,-65l112 -11 -59 97c-88,144 -177,289 -264,435zm3890 -951c-56,91 -112,183 -167,275 399,5 798,10 1197,15l100 1 -53 85c-61,97 -119,196 -176,295l-16 29 -33 -1c-423,-5 -845,-11 -1267,-16 -65,106 -130,212 -194,319 717,9 1434,18 2151,27l99 2 -52 84c-66,109 -132,218 -198,327l-17 27 -32 0c-967,-13 -1934,-26 -2902,-40l-97 -1 50 -84c173,-290 352,-576 525,-866 174,-291 354,-579 531,-868l16 -28 32 1c959,11 1917,23 2875,33l100 1 -53 85c-61,98 -122,196 -180,296l-17 28 -32 0c-730,-8 -1460,-17 -2190,-26zm8368 1445c173,-293 353,-583 526,-877 173,-295 353,-586 530,-879l16 -28 32 0c218,1 436,2 654,2l99 1 -51 85c-177,293 -356,584 -530,879 -173,294 -352,584 -525,878l-17 28 -32 0c-218,-1 -436,-2 -654,-4l-98 0 50 -85zm2204 -1337c88,-146 207,-280 365,-351 180,-80 434,-93 628,-92 689,0 1378,0 2067,-2 137,0 435,2 542,103 113,108 21,293 -44,400 -93,155 -185,312 -278,467 -92,156 -185,312 -278,467 -89,149 -204,282 -365,353 -183,81 -436,93 -633,93 -689,-2 -1378,-4 -2066,-6 -137,0 -432,-3 -538,-104 -113,-108 -21,-292 44,-399 93,-155 185,-310 278,-465 93,-154 185,-310 278,-464zm4761 243c-13,26 -26,53 -39,79 -22,44 -43,88 -68,130 -95,161 -198,317 -291,479 -94,160 -190,319 -283,479l-16 28 -33 0c-195,1 -391,0 -587,0l-98 0 49 -85c173,-296 353,-589 526,-886 173,-297 353,-591 530,-887l16 -27 32 0c149,-1 297,-1 446,-2l19 0 16 12c225,174 450,347 675,521 226,174 451,349 680,520 42,32 85,65 124,101 11,11 23,22 34,34 22,-46 44,-91 67,-136 18,-33 36,-66 54,-98 90,-157 185,-310 274,-467 90,-159 186,-313 279,-470l16 -27 32 -1c197,0 394,-1 592,-2l99 -1 -51 86c-176,297 -356,592 -529,891 -173,298 -353,593 -526,891l-16 28 -32 0c-151,1 -301,1 -451,2l-19 0 -15 -12c-237,-181 -472,-364 -707,-547 -234,-182 -470,-362 -703,-546 -31,-25 -58,-52 -87,-78 -3,-3 -6,-6 -9,-9zm-3966 -259c-108,176 -213,354 -319,531 -93,158 -187,316 -280,474 674,1 1349,3 2024,4 105,-177 209,-355 314,-532 94,-159 188,-319 284,-477 -674,1 -1349,1 -2023,0z" class="fil5"/>
  <path d="M321937 32941c-272,442 116,615 458,702 1282,326 2564,653 3845,979 337,85 722,166 947,432 381,445 182,1246 -509,1262 -7962,188 -17486,465 -23911,349 -4628,-83 -8714,-91 -12258,-25 -1570,31 -3298,-133 -4715,-134 -7880,-5 -15761,-7 -23642,-6 -879,0 -1752,-9 -2621,-27 -5332,-111 -10664,-230 -15995,-357 -937,-21 -2094,-636 -1483,-1767 487,-903 918,-1833 1881,-2314 2097,-1048 3858,-1906 5284,-2576 487,-229 943,-276 1534,-259 6953,202 14318,371 20546,280 4705,-67 9752,-149 14470,-2 5046,157 9990,25 13953,105 2546,52 4754,67 6624,45 5392,-61 10783,-174 16173,-340 736,-24 1622,228 1005,1161 -543,822 -1071,1652 -1586,2492z" class="fil1"/>
  <path d="M248838 33935l4905 -2386c43,-21 95,-33 147,-32l5821 128c1,0 1,0 1,0 41,0 74,-33 75,-73l22 -1173c0,-44 -22,-67 -65,-70 -3322,-157 -6263,-201 -9377,-239 -202,-2 -394,40 -577,127 -1937,925 -3869,1865 -5796,2821 -43,21 -77,53 -99,95l-1042 1942c-26,49 -12,75 43,77 2205,118 4518,125 6605,190 7097,220 14197,324 21298,311 529,0 1128,-50 1689,-222 1187,-365 2368,-731 3545,-1098 75,-23 124,-92 123,-169l21 -3698c0,-45 -36,-82 -81,-82l-15501 -26c-46,0 -70,23 -70,68l-88 3788c-1,39 -21,57 -59,56l-11526 -269c0,0 -1,0 -1,0 -19,0 -34,-16 -34,-34 0,-14 8,-27 21,-32l0 0zm16623 -384l6416 9c104,0 107,17 9,50 -1022,346 -2054,664 -3166,683 -1224,20 -2491,23 -3802,9 -1,0 -1,0 -1,0 -67,-1 -120,-57 -119,-124 0,0 0,-1 0,-1l49 -2395c1,-38 20,-57 59,-57l7031 -17c48,0 49,8 6,23 -827,299 -1925,810 -2811,827 -1079,21 -2158,23 -3237,7 -52,-1 -89,22 -110,69l-379 832c-25,57 -7,85 55,85z" class="fil2"/>
  <path d="M316467 31632l-5412 146c-46,2 -69,26 -68,71l5 3881c0,28 -23,51 -51,51l-4309 0c-52,0 -80,-26 -81,-79l-30 -5108c5,-38 27,-58 66,-58l15927 -344c78,-2 95,30 52,94l-1227 1875c-23,33 -60,54 -101,54 -5,0 -11,-1 -16,-2 -122,-17 -2661,975 -2839,1079 -17,9 -27,27 -27,46 0,24 16,45 40,51l7549 1992c112,30 110,50 -5,61 -2373,217 -4836,106 -7222,143 -271,5 -508,-8 -779,-87 -2000,-577 -3994,-1182 -5984,-1813 -50,-16 -84,-62 -84,-114 0,-15 3,-30 8,-43l319 -822c17,-44 49,-66 97,-68 795,-19 1588,-37 2378,-52 731,-15 1286,-387 1840,-828 111,-89 96,-131 -46,-126z" class="fil3"/>
  <path d="M277251 30365l3394 24c35,0 62,28 62,63l-35 5115c-1,34 -29,62 -64,62l-3393 -24c-35,0 -63,-28 -62,-63l35 -5115c1,-34 29,-62 64,-62z" class="fil4"/>
  <path d="M289555 34277l58 -427c0,-3 1,-6 1,-9 0,-36 -29,-65 -65,-66l-7822 -73c-36,-1 -64,-30 -64,-66 0,0 0,0 0,0l50 -3212c0,0 0,0 0,0 0,-36 29,-66 65,-66 1,0 1,0 1,0l11305 78c36,0 65,29 65,65l-42 5101c0,36 -29,65 -65,65l-11303 -64c-36,0 -66,-29 -66,-66l0 -1183c0,-36 30,-65 66,-65l7751 44c0,0 0,0 0,0 33,0 61,-24 65,-56zm46 -2496c0,-1 0,-1 0,-1 0,-26 -21,-48 -48,-48l-4268 -38c0,0 0,0 0,0 -27,0 -49,22 -49,48l-8 980c0,0 0,1 0,1 0,26 21,48 48,48l4268 38c0,0 0,0 0,0 27,0 49,-22 49,-49l8 -979z" class="fil4"/>
  <path d="M305634 35724c0,29 -23,52 -52,52 0,0 0,0 0,0l-11540 -61c-29,0 -52,-23 -52,-52 0,0 0,0 0,0l27 -5147c0,-28 23,-52 52,-52 0,0 0,0 1,0l11539 61c29,0 52,23 52,52 0,0 0,0 0,0l-27 5147zm-3509 -3839c0,0 0,0 0,0 0,-20 -16,-36 -36,-36l-4485 -31c-1,0 -1,0 -1,0 -19,0 -35,16 -35,35l-18 2510c0,0 0,0 0,0 0,20 16,36 35,36l4486 31c0,0 1,0 1,0 19,0 35,-16 35,-35l18 -2510z" class="fil4"/>
  <path d="M281874 54472c8618,166 17217,176 25834,166 233,0 500,17 802,51 660,74 943,635 498,1185 -1617,2000 -3226,4005 -4827,6015 -325,408 -528,509 -1080,510 -14317,30 -28642,-145 -42951,-639 -2588,-89 -5176,-172 -7764,-248 -548,-16 -884,-254 -1007,-714 -13,-49 -10,-96 9,-142 72,-167 174,-319 304,-455 1838,-1917 3687,-3824 5544,-5723 388,-398 846,-589 1373,-573 7754,236 15509,418 23265,567z" class="fil1"/>
  <path d="M267234 55280c143,241 85,501 -175,778 -886,944 -2153,1260 -3419,1217 -1562,-55 -3126,-104 -4691,-147 -49,-1 -90,16 -123,51l-1528 1579c-31,33 -70,49 -115,47l-2864 -106c-71,-2 -81,-29 -29,-78 1327,-1259 2659,-2509 3993,-3749 316,-293 617,-376 1075,-364 2076,54 4152,116 6228,186 494,17 1374,122 1648,586zm-2983 254c-1045,-82 -2084,-124 -3114,-126 -514,0 -828,217 -1106,605 -52,73 -34,112 56,118 1254,74 2483,92 3687,53 378,-14 569,-194 575,-543 0,0 0,-1 0,-1 0,-56 -42,-102 -98,-106l0 0z" class="fil4"/>
  <path d="M273839 57536l-2552 -87c-47,-2 -54,-19 -21,-52 311,-325 816,-854 1297,-839 1578,51 3210,-40 4779,93 65,6 74,32 28,78l-2533 2528c-29,31 -72,48 -117,47l-9363 -229c-35,-1 -63,-29 -63,-64 0,-18 8,-35 21,-47 1007,-955 2015,-1926 3025,-2914 984,-963 2626,-1136 3941,-1153 2108,-26 4269,11 6484,113 100,4 113,40 41,108l-777 735c-38,35 -82,52 -134,50 -2230,-85 -4062,-134 -5496,-147 -611,-6 -1150,207 -1617,638 -586,542 -1184,1090 -1795,1643 -12,12 -19,28 -19,45 0,33 27,61 60,62l4185 44c41,2 83,-15 115,-45l540 -529c50,-50 41,-76 -29,-78z" class="fil4"/>
  <path d="M286841 57409c-1279,533 -2578,1060 -3836,1639 -581,267 -1173,393 -1776,378 -141,-5 -266,-80 -335,-198l-975 -1629c-1,-3 -2,-5 -4,-7 -22,-28 -62,-33 -89,-12 -2,2 -4,4 -6,6l-1747 1728c-42,41 -93,62 -153,61l-1293 -26c0,0 -1,0 -1,0 -13,0 -23,-10 -23,-22 0,-6 3,-12 7,-16l3938 -4354c28,-31 53,-29 76,5l1980 3069c23,37 56,47 97,31 312,-122 622,-259 927,-411 1551,-772 3107,-1533 4669,-2284 657,-315 2426,-140 3196,-112 61,1 71,25 29,69l-3997 4136c-34,35 -81,55 -130,54l-2230 -37c-49,-1 -57,-19 -25,-56l1738 -1961c62,-71 50,-88 -37,-51z" class="fil4"/>
  <path d="M297844 56708l4529 9c100,1 115,36 43,106l-866 844c-36,34 -78,51 -127,51l-4456 4c-62,-1 -125,26 -170,76 -466,521 -901,1029 -1305,1525 -151,184 -349,272 -592,263 -687,-27 -1346,-38 -1979,-34 -76,0 -90,-30 -41,-89 947,-1166 1879,-2265 2794,-3296 715,-805 2837,-1021 3848,-1036 1497,-21 2994,-29 4491,-23 87,0 99,31 38,93l-849 850c-29,30 -65,44 -107,43 -1190,-20 -2381,-21 -3573,-3 -671,10 -1236,198 -1697,564 -44,35 -38,53 19,53z" class="fil4"/>
  <path d="M305627 55125l2680 5c0,0 0,0 1,0 25,0 46,21 46,46 0,11 -4,21 -11,29l-3435 4285c-8,11 -21,17 -34,17l-2691 44c0,0 -1,0 -1,0 -25,0 -46,-21 -46,-46 0,-11 4,-21 10,-29l3445 -4334c8,-11 22,-17 35,-17 1,0 1,0 1,0l0 0z" class="fil4"/>
  <path d="M290473 58058c131,-241 445,-719 657,-864 34,-24 72,-35 113,-34l1769 35c42,1 50,17 23,50l-651 809c-26,33 -60,49 -103,50l-1769 19c-50,0 -63,-22 -39,-65z" class="fil4"/>
  <path d="M289203 60220c46,-78 92,-155 138,-232l16 -28 32 0c1081,7 2161,12 3241,15l102 1 -54 86c-65,103 -127,207 -189,312l-17 28 -32 -1c-420,-1 -841,-2 -1262,-4 -140,231 -283,460 -420,693 -142,241 -291,478 -433,719l-16 28 -33 0c-216,-2 -433,-4 -649,-6l-98 -1 50 -84c142,-240 287,-478 428,-718 126,-213 257,-424 386,-635 -397,-2 -793,-5 -1190,-8l-52 -1c-13,27 -27,52 -40,74 -34,55 -70,109 -101,165l-15 26 -29 3c-232,19 -463,40 -694,60l-110 9 57 -94c50,-83 99,-166 150,-247 -545,-4 -1089,-9 -1634,-15 -108,174 -213,350 -318,525 -94,156 -187,312 -281,468 544,5 1088,11 1632,16 70,-117 140,-234 213,-349l20 -31 36 6c200,30 400,60 601,89l86 13 -47 73c-43,67 -82,137 -123,206 -89,148 -209,278 -370,347 -181,78 -430,88 -624,87 -559,-6 -1118,-12 -1678,-18 -136,-2 -439,-6 -542,-108 -108,-107 -19,-290 44,-396 91,-154 186,-306 278,-459 94,-154 189,-306 283,-460 88,-143 205,-276 361,-345 180,-79 439,-89 633,-87 559,5 1118,10 1678,14 136,0 427,5 533,106 45,44 58,99 53,158zm-30102 -529c-71,116 -141,231 -212,347 362,14 723,28 1084,42l97 4 -52 82c-65,104 -127,209 -189,315l-17 29 -33 -2c-384,-14 -768,-29 -1152,-44 -63,99 -124,200 -185,301 -66,110 -132,220 -198,330l-17 29 -34 -2c-216,-8 -432,-16 -649,-24l-94 -4 48 -81c172,-291 348,-579 521,-870 173,-291 353,-579 530,-868l17 -28 34 1c947,39 1895,77 2843,112l97 4 -51 82c-62,101 -124,201 -185,302l-18 28 -32 -2c-718,-26 -1436,-54 -2153,-83zm2411 1107c579,20 1157,40 1735,60 135,-224 271,-449 407,-673 142,-235 288,-469 433,-702l17 -27 33 1c218,8 435,15 653,22l98 4 -52 82c-136,219 -273,438 -406,658 -133,221 -268,440 -402,659 -89,147 -205,274 -366,341 -179,74 -437,79 -629,72 -591,-19 -1183,-41 -1775,-61 -138,-5 -432,-18 -536,-121 -112,-110 -22,-290 44,-398 133,-219 265,-440 397,-661 134,-221 270,-441 407,-661l17 -27 33 1c218,8 436,16 653,24l97 4 -51 82c-145,233 -290,466 -432,701 -125,206 -250,413 -375,620zm4588 -863c-57,91 -114,182 -170,274 400,12 800,24 1200,36l99 3 -53 83c-61,97 -122,194 -180,293l-17 28 -33 0c-420,-13 -841,-26 -1261,-39 -66,106 -131,211 -197,317 717,22 1433,43 2150,64l97 3 -50 83c-66,108 -133,216 -199,324l-17 28 -33 -1c-967,-28 -1934,-57 -2901,-88l-96 -3 49 -82c173,-289 353,-574 526,-863 173,-289 353,-574 530,-862l17 -28 33 1c958,31 1916,60 2874,90l99 3 -53 83c-61,96 -118,194 -175,292l-17 28 -34 -1c-729,-21 -1459,-44 -2188,-66zm2867 1097c670,18 1340,36 2009,53l98 3 -51 83c-66,108 -133,216 -199,324l-17 28 -32 -1c-920,-24 -1840,-49 -2760,-74l-97 -3 50 -83c173,-288 352,-572 525,-861 174,-289 354,-575 531,-862l17 -28 32 1c218,6 436,12 654,18l98 3 -52 84c-145,232 -290,464 -432,698 -125,206 -250,411 -374,617zm5299 -1287c218,5 436,10 653,14l99 2 -52 84c-176,287 -356,572 -529,862 -173,289 -353,573 -526,862l-17 28 -32 -1c-218,-5 -436,-10 -654,-15l-97 -3 50 -83c173,-288 352,-573 526,-861 173,-289 353,-575 530,-862l17 -27 32 0zm3446 1245c22,-44 43,-88 67,-131 17,-32 35,-64 54,-95 89,-152 184,-301 273,-453 90,-154 186,-304 279,-455l17 -28 32 1c196,3 392,7 588,10l98 2 -51 84c-177,288 -357,574 -530,864 -173,289 -352,574 -525,864l-17 28 -33 -1c-149,-3 -297,-5 -446,-8l-18 -1 -15 -11c-237,-183 -472,-368 -707,-553 -235,-185 -470,-368 -703,-555 -31,-25 -58,-52 -87,-79 -3,-3 -7,-7 -10,-10 -12,26 -25,51 -38,77 -22,43 -47,86 -73,127 -97,155 -193,309 -287,466 -93,156 -189,310 -282,466l-17 28 -33 -1c-196,-4 -391,-8 -587,-12l-97 -2 50 -83c173,-289 352,-574 525,-863 174,-290 354,-575 531,-863l16 -28 33 1c148,3 297,6 446,9l18 1 15 11c225,177 450,354 676,530 226,176 451,353 679,526 43,32 85,66 124,103 12,11 24,22 35,34zm1724 275c384,7 768,13 1152,19 136,-225 275,-449 411,-675 143,-236 288,-470 433,-704l17 -27 32 0c217,4 433,7 649,10l100 2 -53 84c-136,220 -272,440 -406,661 -132,221 -264,441 -397,661 -90,148 -210,275 -371,344 -177,76 -433,85 -623,82 -402,-6 -804,-13 -1206,-20 -137,-3 -431,-10 -537,-112 -112,-107 -21,-288 44,-395 73,-120 146,-240 221,-359l15 -23 28 -3c234,-22 468,-43 702,-65l112 -11 -59 96c-88,145 -177,290 -264,435zm3890 -951c-56,92 -112,183 -167,276 399,5 798,10 1197,15l100 1 -53 85c-61,97 -119,196 -176,295l-16 28 -33 0c-423,-6 -845,-11 -1267,-17 -65,106 -130,212 -194,319 717,10 1434,19 2151,28l99 1 -52 85c-66,109 -132,218 -198,326l-17 28 -32 -1c-967,-12 -1934,-25 -2902,-39l-97 -1 50 -84c173,-290 352,-576 525,-866 174,-292 354,-579 531,-869l16 -27 32 0c959,12 1917,24 2875,34l100 1 -53 85c-61,98 -122,196 -180,295l-17 29 -32 -1c-730,-7 -1460,-17 -2190,-26zm8368 1446c173,-294 353,-584 526,-877 173,-295 353,-587 530,-880l16 -27 32 0c218,1 436,1 654,2l99 1 -51 85c-177,293 -356,584 -530,878 -173,295 -352,585 -525,879l-17 28 -32 0c-218,-1 -436,-3 -654,-4l-98 -1 50 -84zm2204 -1338c88,-146 207,-279 365,-350 180,-81 434,-93 628,-93 689,1 1378,1 2067,-1 137,0 435,1 542,103 113,108 21,292 -44,400 -93,155 -185,311 -278,467 -92,156 -185,311 -278,467 -89,148 -204,282 -365,353 -183,81 -436,93 -633,92 -689,-1 -1378,-4 -2066,-5 -137,-1 -432,-4 -538,-105 -113,-107 -21,-291 44,-398 93,-155 185,-310 278,-465 93,-155 185,-310 278,-465zm4761 243c-13,27 -26,53 -39,80 -22,43 -43,88 -68,130 -95,161 -198,317 -291,479 -94,160 -190,319 -283,479l-16 28 -33 0c-195,0 -391,0 -587,0l-98 -1 49 -84c173,-297 353,-589 526,-886 173,-297 353,-591 530,-887l16 -27 32 -1c149,0 297,0 446,-1l19 0 16 12c225,173 450,347 675,520 226,174 451,350 680,520 42,32 85,66 124,102 11,11 23,22 34,34 22,-46 44,-92 67,-136 18,-33 36,-66 54,-98 90,-157 185,-310 274,-468 90,-158 186,-313 279,-469l16 -28 32 0c197,0 394,-2 592,-3l99 0 -51 86c-176,297 -356,592 -529,891 -173,298 -353,593 -526,891l-16 28 -32 0c-151,0 -301,1 -451,1l-19 0 -15 -11c-237,-181 -472,-364 -707,-547 -234,-182 -470,-362 -703,-547 -31,-24 -58,-51 -87,-78 -3,-3 -6,-6 -9,-9zm-3966 -259c-108,176 -213,354 -319,532 -93,158 -187,315 -280,473 674,2 1349,3 2024,5 105,-178 209,-355 314,-533 94,-159 188,-318 284,-476 -674,1 -1349,0 -2023,-1z" class="fil5"/>
  <g id="_615972912">
   <path d="M156953 177584l5222 -2298c46,-20 100,-30 155,-28l6079 367c0,0 1,0 1,1 43,1 79,-32 81,-74l70 -1225c2,-46 -20,-71 -65,-75 -3465,-297 -6538,-462 -9791,-626 -211,-10 -414,26 -608,110 -2062,889 -4119,1794 -6171,2716 -46,21 -82,53 -108,96l-1166 1987c-30,50 -16,78 42,83 2300,211 4716,311 6895,463 7410,514 14826,907 22248,1177 554,21 1181,-7 1774,-164 1256,-334 2505,-669 3750,-1005 79,-22 133,-91 135,-172l170 -3865c2,-47 -35,-86 -81,-88l-16200 -648c-49,-2 -74,21 -77,68l-243 3956c-3,40 -24,59 -64,56l-12036 -743c0,0 -1,0 -1,0 -20,-1 -35,-18 -35,-37 1,-15 10,-27 24,-32l0 0zm17390 264l6705 267c109,4 111,21 8,52 -1082,321 -2174,612 -3337,587 -1280,-28 -2605,-76 -3975,-143 0,0 0,0 -1,0 -69,-4 -122,-64 -118,-134 0,-1 0,-1 0,-1l146 -2501c3,-40 24,-60 64,-58l7350 264c50,2 51,10 5,25 -876,279 -2044,769 -2971,751 -1129,-21 -2257,-62 -3384,-123 -54,-3 -94,20 -117,68l-430 855c-28,58 -10,89 55,91z" class="fil1"/>
   <path d="M227730 177884l-5662 -63c-49,0 -73,24 -74,71l-150 4057c-1,29 -26,52 -56,51l-4504 -173c-54,-2 -82,-30 -81,-85l173 -5340c7,-40 31,-60 72,-58l16660 278c81,1 98,34 51,100l-1358 1911c-25,34 -65,53 -107,52 -6,-1 -12,-1 -17,-2 -127,-23 -2821,912 -3011,1013 -18,9 -29,27 -30,47 -1,25 15,48 40,55l7810 2385c116,36 113,57 -8,63 -2488,132 -5058,-83 -7553,-140 -284,-5 -531,-29 -812,-122 -2066,-683 -4127,-1395 -6181,-2134 -52,-19 -85,-68 -83,-123 0,-15 4,-31 10,-45l366 -846c20,-45 54,-67 104,-67 832,12 1661,25 2487,40 765,15 1360,-352 1957,-791 120,-88 106,-132 -43,-134z" class="fil3"/>
   <path d="M186793 174990l3546 161c36,1 64,32 63,68l-243 5345c-1,36 -32,64 -68,62l-3546 -160c-36,-2 -64,-33 -63,-69l243 -5344c1,-37 32,-65 68,-63z" class="fil1"/>
   <path d="M199496 179572l78 -445c0,-3 1,-6 1,-9 1,-38 -28,-69 -65,-71l-8173 -390c-37,-2 -66,-34 -64,-71 0,0 0,0 0,0l181 -3356c0,0 0,0 0,0 1,-38 33,-67 71,-66 0,0 1,0 1,0l11812 534c38,1 67,33 66,71l-248 5329c-2,38 -34,67 -72,66l-11811 -520c-37,-1 -67,-33 -65,-71l47 -1236c2,-38 33,-68 71,-66l8100 357c0,0 0,0 0,0 34,1 64,-23 70,-56zm148 -2608c0,0 0,0 0,0 2,-28 -20,-52 -48,-53l-4460 -210c0,0 0,0 0,0 -28,-1 -51,21 -53,49l-48 1023c0,1 0,1 0,1 -1,28 21,51 49,52l4459 210c0,0 1,0 1,0 27,1 51,-20 52,-48l48 -1024z" class="fil1"/>
   <path d="M216244 181728c-1,30 -27,53 -57,52 0,0 0,0 0,0l-12059 -525c-30,-2 -53,-27 -52,-57 0,0 0,0 0,-1l234 -5377c1,-30 27,-54 57,-53 0,0 0,0 0,0l12059 526c30,1 54,26 52,56 0,1 0,1 0,1l-234 5378zm-3515 -4153c0,-1 0,-1 0,-1 1,-20 -15,-37 -35,-38l-4687 -212c0,0 0,0 -1,0 -20,-1 -37,15 -38,35l-119 2623c0,0 0,0 0,0 -1,20 15,38 35,38l4688 213c0,0 0,0 0,0 20,1 38,-15 38,-35l119 -2623z" class="fil1"/>
  </g>
  <path d="M259682 19245l3898 0 0 953 -953 0 0 1213 3379 0 0 -1213 -1126 0 0 -953 3898 0 0 953 -866 0 0 3205 866 0 0 953 -3898 0 0 -953 1126 0 0 -1039 -3379 0 0 1039 953 0 0 953 -3898 0 0 -953 1039 0 0 -3205 -1039 0 0 -953zm31060 -1l3319 0c1406,0 2556,1151 2556,2556l0 0c0,1406 -1150,2556 -2556,2556l-3319 0 0 0 -2471 0 0 -953 1039 0 0 -3205 -1039 0 0 -953 2471 0 0 -1zm734 4173l1566 0c890,0 1617,-727 1617,-1617l0 0c0,-889 -727,-1616 -1617,-1616l-1566 0 0 14 -260 0 0 3205 260 0 0 14zm-13755 -1600l0 0c0,3768 -8289,3773 -8289,0l0 0c-61,-3778 8222,-3764 8289,0zm-2307 0l0 0c0,2479 -3772,2483 -3772,0l0 0c-28,-2486 3742,-2477 3772,0zm25391 -1619l-827 1472 1853 0 -868 -1472 -158 0zm-1363 2425l-438 780 1049 0 0 953 -1584 0 -1154 0 -468 0 0 -953 1003 0 1801 -3205 -1244 0 0 -953 1779 0 216 0 938 0 272 0 1265 0 2451 4158 962 0 0 953 -401 0 -2475 0 -1629 0 0 -953 1067 0 -459 -780 -2951 0zm-17582 -3378l384 0 3081 4137 0 -3184 -1040 0 0 -953 3206 0 0 953 -953 0 0 4166 -482 0 -731 0 -2014 0 -2924 -3927 0 2966 866 0 0 953 -3292 0 0 -953 1213 0 0 -3205 -1213 0 0 -953 1538 0 2361 0z" class="fil5"/>
  <g id="_652584072">
   <path d="M574 75076c594,-311 1607,-320 13609,-422 12002,-102 34994,-296 52655,-164 17660,133 29989,595 38107,982 8118,387 12025,700 14371,906 2346,206 3131,304 4094,682 963,378 2104,1036 9944,5386 7840,4351 22379,12394 30231,16862 7852,4469 9017,5363 9654,6042 636,680 743,1146 408,1359 -336,214 -1115,174 -13736,-524 -12622,-700 -37085,-2058 -54185,-2833 -17101,-775 -26838,-966 -34616,-941 -7777,25 -13595,265 -17026,231 -3432,-35 -4477,-344 -12623,-4485 -8147,-4140 -23394,-12110 -31549,-16339 -8155,-4229 -9219,-4715 -9663,-5266 -444,-550 -269,-1165 325,-1476z" class="fil0"/>
   <path d="M11999 17027c729,-268 1291,-233 10000,306 8709,540 25565,1585 36488,2329 10923,745 15913,1188 18346,1576 2433,388 2307,720 -178,4086 -2485,3366 -7329,9766 -9941,13066 -2612,3299 -2990,3497 -3499,3589 -509,93 -1148,79 -3781,70 -2633,-8 -7259,-11 -10263,-140 -3004,-130 -4386,-387 -9886,-3849 -5501,-3461 -15119,-10129 -20774,-13933 -5655,-3805 -7347,-4748 -7744,-5505 -397,-756 501,-1327 1232,-1595z" class="fil0"/>
   <path d="M175854 132463c33,127 70,260 110,404 379,1357 1009,3605 2104,6882 1094,3277 2654,7583 3775,11894 1121,4311 1805,8627 2344,10765 538,2138 933,2097 7467,-290 6533,-2386 19206,-7119 29293,-10629 10087,-3510 17588,-5797 21804,-7068 4215,-1271 5146,-1526 5867,-1879 722,-354 1234,-805 5953,-6873 2508,-3225 6205,-8037 10014,-13019 -677,57 -1409,114 -2203,172 -5344,391 -13513,832 -26034,2000 -12521,1168 -29393,3063 -42366,4876 -7199,1006 -13197,1987 -18128,2765z" class="fil6"/>
   <path d="M259297 118807c425,-652 983,-1513 1720,-2663 2542,-3970 7203,-11388 9748,-15717 2546,-4330 2977,-5570 3116,-6542 139,-971 -13,-1673 -512,-2260 -499,-587 -1345,-1058 -7749,-4387 -6403,-3329 -18365,-9516 -24808,-12841 -6443,-3325 -7368,-3788 -8604,-4180 -1237,-391 -2785,-710 -9928,-1530 -7143,-821 -19880,-2143 -34559,-3345 -14678,-1202 -31299,-2284 -44409,-2969 -9177,-480 -16633,-765 -22803,-935 13049,6184 29008,13904 39269,19898 6164,3601 10271,6578 13165,9063 6103,34 15767,237 21383,383 5878,154 7323,244 7951,538 628,295 440,793 60,1749 -380,956 -952,2371 -1365,3011 -413,641 -666,508 -5757,632 -3826,94 -10384,334 -15799,558 1889,2503 2674,4319 3048,7294 436,3464 316,8501 -965,13099 -822,2948 -2121,5715 -3253,7932 1149,-98 2396,-206 3756,-327 11578,-1032 31237,-2974 46694,-4284 13122,-1113 23215,-1771 30601,-2177z" class="fil0"/>
   <path d="M91119 25990c-1713,2728 -4350,8104 -5895,11692 -1545,3588 -1998,5390 -1909,6258 90,868 721,803 5266,2728 3969,1681 10922,4881 21777,9982 6745,52 15481,203 25602,538 15845,523 35086,1495 52146,2971 17059,1475 31938,3454 39926,4746 7989,1292 9088,1896 15923,5540 6835,3644 19405,10326 26300,14163 6894,3837 8113,4828 8723,5722 611,895 613,1692 -2318,6539 -2931,4848 -8795,13745 -12006,18582 -898,1352 -1588,2387 -2130,3185l462 -23c1823,-92 3433,-166 4855,-227 2260,-2964 4452,-5845 6346,-8342 5970,-7872 8981,-11930 10632,-14492 1651,-2563 1940,-3629 2131,-4487 191,-857 284,-1504 183,-2092 -100,-588 -394,-1116 -1544,-1835 -1151,-719 -3159,-1629 -12943,-7202 -9785,-5574 -27347,-15810 -37472,-21588 -10125,-5777 -12813,-7096 -18506,-8943 -5693,-1847 -14391,-4222 -25333,-7085 -10941,-2862 -24126,-6211 -39639,-9321 -15513,-3110 -33355,-5981 -43290,-7591 -9935,-1610 -11965,-1959 -13375,-2094 -1409,-134 -2198,-53 -3912,2676z" class="fil0"/>
   <g>
    <path d="M248699 108199c-1180,-4 -2359,-8 -3539,-12 3341,-3110 6578,-6221 9919,-9330 1602,-1746 810,-3345 -1026,-4166 -14562,-5323 -29050,-10646 -43334,-15968 -4988,-1816 -4744,-3425 -6528,-7723l50807 21509c4121,1575 4424,4386 1847,7186 0,0 -8147,8712 -8146,8504zm-5411 85c-6347,-92 -12694,-183 -19041,-275 2490,-1469 4981,-2938 7471,-4406l14329 2027c-920,885 -1839,1769 -2759,2654zm-10900 -5570c201,-694 -610,-719 -1147,-924 -2670,-425 -5339,-851 -8008,-1276 -2291,-457 -3154,-1120 -3946,-2199 -518,-765 -1035,-1634 -1553,-2399l31737 6421c-844,812 -1688,1624 -2533,2436l-14550 -2059zm5912 -3635c193,-424 -317,-762 -1531,-1015 -6204,-1305 -12408,-2610 -18612,-3915 -2998,-725 -4425,-2991 -5912,-5640l40188 10978c-702,676 -1405,1352 -2108,2027l-12025 -2435zm4971 -2984c126,-460 -339,-803 -1393,-1031 -8697,-2562 -17394,-5125 -26091,-7687 -4522,-1309 -6527,-3310 -7779,-7103 14585,5046 29169,10091 43754,15137 3027,670 3225,1746 1549,3231 -17,17 -35,34 -53,51l-9987 -2598z" class="fil6"/>
    <path d="M201975 109388l4682 16 -4 1145 -1144 -4 -6 1456 4059 15 5 -1457 -1353 -5 4 -1144 4682 16 -4 1145 -1040 -4 -14 3850 1041 4 -4 1144 -4683 -16 4 -1145 1353 5 5 -1249 -4059 -14 -4 1249 1145 4 -4 1144 -4683 -16 4 -1145 1249 5 13 -3850 -1248 -5 4 -1144zm37306 130l3986 14c1689,6 3065,1393 3059,3081l0 0c-6,1688 -1392,3065 -3080,3059l-3986 -14 0 0 -2969 -11 4 -1144 1248 4 14 -3850 -1249 -4 4 -1145 2969 11 0 -1zm864 5015l1881 6c1068,4 1944,-866 1948,-1934l0 0c4,-1068 -867,-1945 -1934,-1949l-1882 -6 0 16 -312 -1 -14 3850 313 1 0 17zm-16515 -1980l0 0c-16,4526 -9971,4497 -9955,-35l0 0c-58,-4538 9891,-4486 9955,35zm-2770 -10l0 0c-10,2978 -4541,2966 -4530,-16l0 0c-23,-2986 4504,-2958 4530,16zm30503 -1837l-1000 1765 2226 8 -1036 -1773 -190 0zm-1647 2907l-529 935 1259 4 -4 1145 -1902 -7 -1387 -5 -561 -2 4 -1144 1204 4 2177 -3842 -1495 -5 4 -1145 2138 7 259 1 1127 4 326 1 1520 6 2926 5005 1156 4 -4 1144 -482 -1 -2973 -11 -1956 -7 4 -1144 1281 4 -548 -938 -3544 -13zm-21104 -4132l462 2 3683 4982 13 -3825 -1248 -4 4 -1145 3850 14 -4 1145 -1145 -5 -17 5004 -579 -2 -878 -3 -2419 -9 -3496 -4728 -12 3562 1040 4 -4 1145 -3954 -14 4 -1145 1457 5 14 -3850 -1457 -5 4 -1144 1847 6 2835 10z" class="fil6"/>
   </g>
  </g>
  <path d="M380858 170133c16564,-567 46728,-1700 78811,-4228 32082,-2529 66082,-6452 84302,-8631 18221,-2179 20662,-2616 22100,-2397 1439,218 1875,1089 1569,1569 -305,479 -1351,566 -17087,4054 -15736,3487 -46161,10374 -74669,16476 -28508,6103 -55098,11421 -69090,14211 -13992,2789 -15387,3051 -21620,3356 -6234,305 -17306,654 -25588,654 -8282,0 -13774,-349 -17130,-654 -3357,-305 -4577,-567 -8762,-3487 -4184,-2920 -11333,-8500 -15779,-12118 -4447,-3618 -6190,-5274 -7062,-6233 -872,-959 -872,-1221 -610,-1352 261,-130 784,-130 1656,-130 872,0 2093,0 9895,-88 7803,-87 22187,-261 30862,-348 8674,-87 11638,-87 28202,-654z" class="fil0"/>
  <path d="M417168 198110c567,-488 1875,-765 12772,-3075 10898,-2311 31385,-6654 50739,-11223 19353,-4569 37574,-9364 48690,-12371 11115,-3008 15125,-4229 17392,-4665 2267,-435 2790,-87 2354,436 -436,524 -1831,1221 -16957,8195 -15125,6975 -43982,20226 -58890,27113 -14907,6887 -15866,7411 -17523,7236 -1656,-174 -4010,-1046 -10592,-2790 -6582,-1743 -17392,-4359 -22884,-6015 -5493,-1657 -5667,-2354 -5101,-2841z" class="fil1"/>
  <g id="_652585224">
   <path d="M346509 183060l5002 -2743c44,-25 97,-40 152,-42l6088 -163c0,0 1,0 1,0 43,-2 76,-38 74,-81l-36 -1226c-3,-46 -27,-69 -72,-69 -3478,5 -6553,109 -9809,228 -210,9 -409,63 -595,163 -1977,1065 -3947,2146 -5912,3243 -44,25 -77,60 -99,105l-989 2081c-24,53 -8,79 50,79 2309,10 4725,-101 6909,-139 7426,-133 14848,-387 22266,-764 553,-27 1176,-110 1753,-318 1222,-442 2437,-884 3648,-1328 77,-28 125,-102 120,-183l-167 -3865c-2,-46 -42,-83 -89,-80l-16195 764c-49,3 -72,28 -71,75l102 3962c1,40 -18,60 -58,62l-12055 306c0,1 -1,1 -1,1 -20,0 -37,-15 -38,-34 0,-15 8,-28 21,-34l0 0zm17347 -1251l6703 -318c108,-5 112,12 12,52 -1050,413 -2112,799 -3274,875 -1277,83 -2601,151 -3971,203 -1,0 -1,0 -1,0 -70,3 -128,-53 -130,-123 0,0 0,-1 0,-1l-72 -2504c-1,-40 19,-61 59,-63l7345 -377c49,-3 52,5 7,24 -849,354 -1970,944 -2894,1007 -1127,77 -2254,135 -3382,172 -55,2 -92,28 -111,79l-353 888c-24,61 -3,90 62,86z" class="fil1"/>
   <path d="M417044 177198l-5647 430c-48,4 -71,30 -67,77l203 4054c2,30 -21,55 -50,56l-4502 220c-55,3 -85,-23 -89,-78l-293 -5335c4,-40 26,-61 67,-63l16621 -1174c81,-6 101,26 60,96l-1187 2021c-22,36 -60,59 -102,61 -6,0 -12,0 -17,0 -128,-12 -2731,1154 -2911,1271 -17,11 -27,30 -26,50 1,25 19,46 44,51l7989 1696c118,25 117,47 -2,63 -2468,349 -5047,358 -7538,519 -283,19 -531,17 -819,-51 -2118,-501 -4232,-1031 -6343,-1589 -53,-13 -91,-60 -94,-114 -1,-16 1,-31 6,-46l291 -874c16,-47 49,-72 98,-77 830,-60 1657,-119 2481,-176 763,-52 1325,-469 1881,-959 112,-98 94,-141 -54,-129z" class="fil3"/>
   <path d="M376010 177878l3546 -148c37,-2 67,26 69,62l224 5346c1,36 -27,67 -63,68l-3547 149c-36,1 -66,-27 -68,-63l-224 -5345c-1,-37 27,-67 63,-69z" class="fil1"/>
   <path d="M389064 181337l38 -450c0,-3 1,-6 0,-9 -2,-38 -33,-67 -71,-65l-8175 323c-37,1 -68,-28 -70,-65 0,0 0,0 0,0l-112 -3359c0,0 0,0 0,0 -2,-38 27,-70 65,-72 0,0 1,0 1,0l11813 -497c38,-2 70,27 72,65l217 5331c2,38 -27,70 -65,72l-11811 510c-38,2 -70,-27 -72,-65l-61 -1236c-1,-38 28,-70 65,-72l8100 -349c0,0 1,0 1,0 34,-2 62,-28 65,-62zm-80 -2611c0,0 0,0 0,0 -1,-28 -24,-50 -52,-48l-4461 179c-1,0 -1,0 -1,0 -28,1 -49,25 -48,52l41 1025c0,0 0,0 0,0 1,28 25,49 53,48l4461 -179c0,0 0,0 0,0 28,-1 50,-25 48,-53l-41 -1024z" class="fil1"/>
   <path d="M405936 182026c1,31 -22,56 -52,58 0,0 -1,0 -1,0l-12058 526c-31,1 -56,-22 -58,-52 0,0 0,0 0,0l-234 -5378c-2,-30 22,-56 52,-57 0,0 0,0 0,0l12059 -527c30,-1 55,22 57,52 0,1 0,1 0,1l235 5377zm-3863 -3831c0,0 0,0 0,0 -1,-20 -18,-36 -39,-35l-4688 196c0,0 0,0 0,0 -20,1 -36,19 -35,39l110 2623c0,0 0,0 0,0 1,21 18,36 38,36l4688 -197c0,0 0,0 0,0 21,-1 36,-18 36,-38l-110 -2624z" class="fil1"/>
  </g>
  <g id="_652593144">
   <path d="M579353 70888c-594,-311 -1607,-320 -13609,-422 -12002,-101 -34994,-296 -52655,-163 -17660,133 -29989,594 -38106,981 -8118,387 -12026,701 -14372,906 -2346,206 -3131,304 -4094,682 -963,378 -2104,1036 -9944,5386 -7840,4351 -22379,12394 -30231,16862 -7852,4469 -9017,5363 -9653,6042 -637,680 -744,1146 -408,1360 335,213 1114,174 13736,-525 12621,-699 37084,-2058 54185,-2833 17100,-775 26837,-966 34615,-941 7777,25 13595,266 17026,231 3432,-35 4477,-344 12623,-4485 8147,-4140 23394,-12110 31549,-16339 8155,-4229 9219,-4715 9663,-5266 444,-550 269,-1164 -325,-1476z" class="fil0"/>
   <path d="M565835 17027c-730,-268 -1292,-233 -10001,306 -8709,540 -25565,1585 -36488,2329 -10923,745 -15913,1188 -18346,1576 -2432,388 -2307,720 178,4086 2485,3366 7330,9766 9941,13065 2612,3300 2990,3498 3499,3590 509,93 1148,79 3781,70 2633,-8 7259,-11 10263,-140 3004,-130 4387,-387 9887,-3849 5500,-3461 15118,-10129 20773,-13933 5655,-3805 7347,-4748 7744,-5505 397,-756 -501,-1327 -1231,-1595z" class="fil0"/>
   <path d="M401979 132463c-33,127 -70,260 -110,404 -379,1357 -1009,3605 -2104,6882 -1094,3277 -2654,7583 -3775,11894 -1121,4311 -1805,8627 -2343,10765 -539,2138 -934,2097 -7468,-290 -6533,-2386 -19206,-7119 -29293,-10629 -10087,-3510 -17587,-5797 -21803,-7068 -4216,-1271 -5147,-1526 -5868,-1879 -722,-354 -1234,-805 -5953,-6873 -2508,-3225 -6205,-8037 -10014,-13019 678,57 1409,114 2203,172 5344,391 13513,832 26034,2000 12521,1168 29393,3063 42366,4876 7199,1006 13197,1987 18128,2765z" class="fil1"/>
   <path d="M318536 118807c-424,-652 -983,-1513 -1720,-2663 -2542,-3970 -7203,-11388 -9748,-15717 -2546,-4330 -2976,-5570 -3116,-6542 -139,-971 13,-1673 512,-2260 499,-587 1345,-1058 7749,-4387 6403,-3329 18365,-9516 24808,-12841 6443,-3325 7368,-3788 8605,-4180 1236,-391 2784,-710 9927,-1530 7143,-821 19880,-2143 34559,-3345 14678,-1202 31299,-2284 44409,-2969 9177,-480 16634,-765 22803,-935 -13049,6184 -29008,13904 -39269,19898 -6164,3601 -10271,6578 -13164,9063 -6104,34 -15767,237 -21384,383 -5877,154 -7322,244 -7951,538 -628,295 -440,793 -60,1749 380,956 953,2371 1365,3011 413,641 666,508 5757,632 3826,94 10384,334 15800,558 -1890,2503 -2675,4319 -3049,7294 -436,3464 -316,8501 965,13099 822,2948 2121,5715 3253,7932 -1149,-98 -2396,-206 -3756,-327 -11577,-1032 -31237,-2974 -46694,-4284 -13122,-1113 -23215,-1771 -30601,-2177z" class="fil0"/>
   <path d="M486714 25990c1713,2728 4350,8104 5895,11692 1545,3588 1998,5390 1909,6258 -90,868 -721,803 -5265,2728 -3970,1681 -10923,4881 -21778,9982 -6745,52 -15480,203 -25602,538 -15845,523 -35086,1495 -52145,2971 -17060,1475 -31938,3454 -39927,4746 -7989,1292 -9088,1896 -15922,5540 -6835,3644 -19406,10326 -26301,14163 -6894,3837 -8113,4828 -8723,5722 -611,895 -613,1692 2318,6539 2931,4848 8795,13745 12006,18582 898,1352 1589,2387 2130,3185l-461 -23c-1824,-92 -3434,-166 -4856,-227 -2260,-2964 -4452,-5845 -6346,-8342 -5969,-7872 -8981,-11930 -10632,-14492 -1650,-2563 -1940,-3629 -2131,-4487 -190,-857 -283,-1504 -183,-2092 100,-588 394,-1116 1545,-1835 1150,-719 3158,-1629 12943,-7202 9784,-5574 27346,-15810 37471,-21588 10125,-5777 12813,-7096 18506,-8943 5693,-1847 14391,-4222 25333,-7085 10941,-2862 24126,-6211 39639,-9321 15513,-3110 33355,-5981 43290,-7591 9936,-1610 11965,-1959 13375,-2094 1409,-134 2199,-53 3912,2676z" class="fil0"/>
   <g>
    <path d="M329134 108199c1180,-4 2359,-8 3539,-12 -3341,-3110 -6578,-6221 -9919,-9330 -1602,-1746 -810,-3345 1026,-4166 14562,-5323 29050,-10646 43334,-15968 4988,-1816 4744,-3425 6529,-7723l-50807 21509c-4122,1575 -4424,4386 -1848,7186 0,0 8147,8712 8146,8504zm5411 85c6347,-92 12694,-183 19041,-275 -2490,-1469 -4981,-2938 -7471,-4406l-14329 2027c920,885 1839,1769 2759,2654zm10901 -5570c-202,-694 609,-719 1147,-924 2669,-425 5338,-851 8007,-1276 2291,-457 3155,-1120 3947,-2199 517,-765 1034,-1634 1552,-2399l-31737 6421c845,812 1689,1624 2533,2436l14551 -2059zm-5912 -3635c-194,-424 316,-762 1531,-1015 6204,-1305 12408,-2610 18611,-3915 2998,-725 4425,-2991 5912,-5640l-40188 10978c703,676 1405,1352 2108,2027l12026 -2435zm-4972 -2984c-126,-460 339,-803 1393,-1031 8697,-2562 17394,-5125 26091,-7687 4522,-1309 6527,-3310 7779,-7103 -14584,5046 -29169,10091 -43753,15137 -3028,670 -3226,1746 -1550,3231 18,17 35,34 53,51l9987 -2598z" class="fil6"/>
    <path d="M319917 109388l4682 16 -4 1145 -1144 -4 -5 1456 4058 15 5 -1457 -1353 -5 4 -1144 4683 16 -4 1145 -1041 -4 -14 3850 1041 4 -4 1144 -4682 -16 4 -1145 1352 5 5 -1249 -4058 -14 -5 1249 1145 4 -4 1144 -4683 -16 4 -1145 1249 5 14 -3850 -1249 -5 4 -1144zm37306 130l3986 14c1689,6 3065,1393 3059,3081l0 0c-6,1688 -1392,3065 -3080,3059l-3986 -14 0 0 -2969 -11 4 -1144 1249 4 13 -3850 -1249 -4 4 -1145 2969 11 0 -1zm864 5015l1881 6c1068,4 1945,-866 1948,-1934l0 0c4,-1068 -866,-1945 -1934,-1949l-1882 -6 0 16 -312 -1 -13 3850 312 1 0 17zm-16514 -1980l0 0c-16,4526 -9972,4497 -9956,-35l0 0c-57,-4538 9891,-4486 9956,35zm-2771 -10l0 0c-10,2978 -4541,2966 -4530,-16l0 0c-23,-2986 4504,-2958 4530,16zm30503 -1837l-1000 1765 2226 8 -1036 -1773 -190 0zm-1647 2907l-529 935 1259 4 -4 1145 -1902 -7 -1386 -5 -562 -2 4 -1144 1205 4 2176 -3842 -1494 -5 4 -1145 2137 7 259 1 1127 4 327 1 1519 6 2926 5005 1156 4 -4 1144 -482 -1 -2973 -11 -1956 -7 4 -1144 1281 4 -548 -938 -3544 -13zm-21104 -4132l462 2 3683 4982 14 -3825 -1249 -4 4 -1145 3850 14 -4 1145 -1145 -5 -17 5004 -579 -2 -878 -3 -2419 -9 -3495 -4728 -13 3562 1041 4 -4 1145 -3954 -14 4 -1145 1456 5 14 -3850 -1457 -5 4 -1144 1847 6 2835 10z" class="fil6"/>
   </g>
  </g>
  <path d="M164929 8075l-3068 -7942 1138 0 2063 5771c165,462 305,895 416,1300 122,-435 265,-867 427,-1300l2141 -5771 1072 0 -3096 7942 -1093 0zm5158 0l0 -7942 5734 0 0 932 -4680 0 0 2440 4381 0 0 932 -4381 0 0 2706 4869 0 0 932 -5923 0zm7398 0l0 -7942 3520 0c708,0 1246,72 1613,215 368,142 662,393 882,754 220,360 329,760 329,1196 0,564 -183,1039 -547,1425 -364,386 -926,630 -1688,736 279,133 490,266 634,395 307,281 597,634 869,1058l1374 2163 -1313 0 -1050 -1653c-305,-479 -558,-843 -756,-1096 -200,-253 -377,-429 -534,-531 -155,-100 -316,-170 -479,-211 -118,-24 -312,-36 -584,-36l-1216 0 0 3527 -1054 0zm1054 -4437l2255 0c481,0 854,-50 1124,-150 270,-98 475,-257 614,-477 140,-218 210,-454 210,-711 0,-376 -135,-686 -406,-928 -272,-243 -701,-363 -1287,-363l-2510 0 0 2629zm7111 4437l0 -7942 1054 0 0 7942 -1054 0zm2960 0l0 -7942 5357 0 0 932 -4304 0 0 2473 3727 0 0 932 -3727 0 0 3605 -1053 0zm6897 0l0 -7942 1053 0 0 7942 -1053 0zm8560 -2786l1054 266c-220,863 -615,1519 -1187,1972 -571,453 -1270,681 -2096,681 -854,0 -1549,-174 -2085,-523 -536,-348 -943,-853 -1222,-1513 -279,-661 -420,-1369 -420,-2127 0,-827 157,-1548 474,-2163 316,-616 765,-1083 1347,-1403 582,-320 1224,-479 1923,-479 795,0 1462,201 2002,606 541,405 918,973 1131,1705l-1031 244c-183,-577 -451,-999 -801,-1261 -349,-264 -789,-396 -1320,-396 -608,0 -1118,146 -1527,439 -408,292 -697,685 -861,1177 -167,494 -250,1002 -250,1525 0,675 98,1265 294,1767 196,505 501,880 915,1130 414,249 862,373 1344,373 588,0 1083,-170 1490,-508 407,-340 682,-843 826,-1512zm1483 2786l3046 -7942 1156 0 3233 7942 -1196 0 -919 -2407 -3344 0 -861 2407 -1115 0zm2285 -3261l2706 0 -828 -2202c-250,-669 -438,-1222 -569,-1658 -109,517 -255,1026 -438,1529l-871 2331zm6006 3261l0 -7942 3520 0c708,0 1246,72 1613,215 368,142 662,393 882,754 220,360 329,760 329,1196 0,564 -183,1039 -547,1425 -364,386 -926,630 -1688,736 279,133 490,266 634,395 307,281 597,634 869,1058l1374 2163 -1313 0 -1050 -1653c-305,-479 -558,-843 -756,-1096 -200,-253 -377,-429 -534,-531 -155,-100 -316,-170 -479,-211 -118,-24 -312,-36 -584,-36l-1216 0 0 3527 -1054 0zm1054 -4437l2255 0c481,0 854,-50 1124,-150 270,-98 475,-257 614,-477 140,-218 210,-454 210,-711 0,-376 -135,-686 -406,-928 -272,-243 -701,-363 -1287,-363l-2510 0 0 2629zm10015 4437l0 -7942 2736 0c618,0 1089,37 1414,113 455,105 843,296 1165,569 419,355 732,806 939,1357 209,551 312,1181 312,1889 0,603 -70,1137 -210,1603 -141,466 -322,852 -542,1157 -222,305 -462,546 -725,719 -260,176 -576,309 -946,400 -372,90 -797,135 -1277,135l-2866 0zm1054 -932l1693 0c523,0 934,-48 1231,-146 298,-98 535,-235 712,-412 248,-250 442,-586 581,-1008 138,-421 208,-931 208,-1532 0,-832 -136,-1472 -408,-1919 -272,-447 -603,-747 -993,-899 -281,-109 -734,-162 -1359,-162l-1665 0 0 6078zm7134 932l0 -7942 1053 0 0 7942 -1053 0zm2881 0l0 -7942 1575 0 1879 5622c173,523 299,915 379,1175 90,-288 233,-713 425,-1273l1911 -5524 1407 0 0 7942 -1009 0 0 -6644 -2318 6644 -947 0 -2292 -6766 0 6766 -1010 0zm9284 0l0 -7942 5734 0 0 932 -4680 0 0 2440 4381 0 0 932 -4381 0 0 2706 4869 0 0 932 -5923 0zm7365 0l0 -7942 1079 0 4167 6233 0 -6233 1009 0 0 7942 -1079 0 -4167 -6234 0 6234 -1009 0zm7677 -2551l987 -89c46,399 155,726 327,983 172,255 438,462 799,621 360,157 767,237 1218,237 401,0 754,-59 1061,-179 307,-120 534,-285 684,-494 150,-209 226,-436 226,-680 0,-248 -72,-464 -217,-651 -144,-185 -382,-340 -715,-468 -213,-81 -684,-210 -1414,-386 -730,-176 -1241,-340 -1533,-495 -379,-200 -660,-448 -844,-742 -187,-294 -280,-624 -280,-989 0,-403 115,-778 342,-1125 228,-350 559,-614 997,-795 436,-181 922,-272 1456,-272 588,0 1108,94 1557,285 449,188 795,467 1037,837 242,368 372,786 390,1252l-1009 77c-54,-501 -237,-880 -549,-1135 -313,-257 -775,-384 -1385,-384 -636,0 -1100,116 -1390,349 -290,233 -436,514 -436,843 0,285 103,519 308,704 204,183 731,374 1585,566 854,194 1440,362 1758,507 460,212 802,480 1022,807 220,326 329,701 329,1126 0,423 -120,819 -362,1192 -243,374 -588,664 -1041,871 -453,207 -961,311 -1529,311 -717,0 -1318,-106 -1802,-315 -486,-208 -865,-523 -1141,-944 -277,-420 -421,-895 -436,-1425zm7919 2551l0 -7942 1054 0 0 7942 -1054 0zm2583 -3866c0,-1316 355,-2347 1063,-3092 708,-745 1621,-1117 2741,-1117 734,0 1394,176 1984,525 587,349 1037,837 1345,1464 309,625 464,1335 464,2128 0,804 -162,1525 -488,2159 -325,636 -785,1116 -1381,1442 -597,327 -1240,490 -1929,490 -749,0 -1416,-181 -2006,-542 -588,-360 -1035,-852 -1339,-1477 -303,-623 -454,-1283 -454,-1980zm1087 19c0,955 257,1708 771,2257 513,549 1159,824 1935,824 791,0 1440,-277 1952,-832 510,-554 765,-1342 765,-2362 0,-645 -109,-1209 -327,-1690 -218,-480 -538,-854 -957,-1118 -422,-264 -893,-398 -1416,-398 -744,0 -1383,256 -1919,766 -536,510 -804,1360 -804,2553zm7851 3847l0 -7942 1079 0 4167 6233 0 -6233 1009 0 0 7942 -1079 0 -4167 -6234 0 6234 -1009 0zm8043 0l0 -7942 5734 0 0 932 -4681 0 0 2440 4382 0 0 932 -4382 0 0 2706 4870 0 0 932 -5923 0zm7032 -2551l987 -89c46,399 155,726 327,983 172,255 438,462 799,621 360,157 767,237 1218,237 401,0 754,-59 1061,-179 307,-120 534,-285 684,-494 150,-209 225,-436 225,-680 0,-248 -72,-464 -216,-651 -144,-185 -382,-340 -715,-468 -213,-81 -684,-210 -1414,-386 -731,-176 -1241,-340 -1533,-495 -379,-200 -660,-448 -845,-742 -186,-294 -279,-624 -279,-989 0,-403 115,-778 342,-1125 228,-350 558,-614 997,-795 436,-181 922,-272 1456,-272 588,0 1108,94 1557,285 449,188 795,467 1037,837 242,368 371,786 390,1252l-1009 77c-54,-501 -237,-880 -549,-1135 -313,-257 -775,-384 -1385,-384 -636,0 -1100,116 -1390,349 -290,233 -436,514 -436,843 0,285 103,519 308,704 204,183 730,374 1585,566 853,194 1440,362 1757,507 461,212 803,480 1023,807 220,326 329,701 329,1126 0,423 -120,819 -363,1192 -242,374 -587,664 -1040,871 -453,207 -962,311 -1529,311 -717,0 -1318,-106 -1802,-315 -487,-208 -866,-523 -1141,-944 -277,-420 -421,-895 -436,-1425zm9341 2551l3046 -7942 1155 0 3234 7942 -1196 0 -919 -2407 -3344 0 -862 2407 -1114 0zm2284 -3261l2707 0 -828 -2202c-250,-669 -439,-1222 -570,-1658 -109,517 -255,1026 -438,1529l-871 2331zm5973 3261l0 -7942 1080 0 4166 6233 0 -6233 1010 0 0 7942 -1080 0 -4166 -6234 0 6234 -1010 0zm10040 0l0 -7010 -2618 0 0 -932 6289 0 0 932 -2617 0 0 7010 -1054 0zm4778 0l0 -7942 5735 0 0 932 -4681 0 0 2440 4381 0 0 932 -4381 0 0 2706 4869 0 0 932 -5923 0zm7032 -2551l988 -89c46,399 155,726 327,983 172,255 438,462 798,621 361,157 768,237 1219,237 401,0 754,-59 1061,-179 306,-120 534,-285 684,-494 149,-209 225,-436 225,-680 0,-248 -72,-464 -216,-651 -144,-185 -383,-340 -716,-468 -212,-81 -684,-210 -1414,-386 -730,-176 -1240,-340 -1532,-495 -379,-200 -660,-448 -845,-742 -187,-294 -279,-624 -279,-989 0,-403 114,-778 342,-1125 227,-350 558,-614 996,-795 437,-181 923,-272 1457,-272 588,0 1107,94 1556,285 450,188 795,467 1037,837 243,368 372,786 391,1252l-1010 77c-53,-501 -236,-880 -549,-1135 -312,-257 -774,-384 -1384,-384 -636,0 -1100,116 -1390,349 -291,233 -437,514 -437,843 0,285 104,519 309,704 203,183 730,374 1584,566 854,194 1440,362 1758,507 460,212 802,480 1022,807 220,326 329,701 329,1126 0,423 -120,819 -362,1192 -242,374 -588,664 -1041,871 -452,207 -961,311 -1528,311 -718,0 -1318,-106 -1803,-315 -486,-208 -865,-523 -1140,-944 -278,-420 -422,-895 -437,-1425zm10824 2551l0 -7942 2736 0c617,0 1089,37 1414,113 455,105 843,296 1165,569 419,355 732,806 939,1357 208,551 312,1181 312,1889 0,603 -70,1137 -211,1603 -140,466 -321,852 -541,1157 -222,305 -463,546 -725,719 -261,176 -577,309 -947,400 -371,90 -796,135 -1277,135l-2865 0zm1054 -932l1693 0c523,0 933,-48 1231,-146 298,-98 534,-235 712,-412 247,-250 442,-586 580,-1008 139,-421 209,-931 209,-1532 0,-832 -137,-1472 -409,-1919 -271,-447 -602,-747 -992,-899 -281,-109 -734,-162 -1359,-162l-1665 0 0 6078zm6978 932l0 -7942 5734 0 0 932 -4680 0 0 2440 4381 0 0 932 -4381 0 0 2706 4869 0 0 932 -5923 0zm16114 -2786l1054 266c-220,863 -616,1519 -1187,1972 -571,453 -1270,681 -2096,681 -854,0 -1550,-174 -2086,-523 -536,-348 -942,-853 -1222,-1513 -279,-661 -419,-1369 -419,-2127 0,-827 157,-1548 473,-2163 316,-616 765,-1083 1348,-1403 582,-320 1223,-479 1922,-479 795,0 1462,201 2002,606 542,405 919,973 1132,1705l-1032 244c-183,-577 -451,-999 -800,-1261 -350,-264 -790,-396 -1320,-396 -608,0 -1119,146 -1527,439 -409,292 -697,685 -862,1177 -166,494 -249,1002 -249,1525 0,675 98,1265 294,1767 196,505 501,880 915,1130 414,249 861,373 1344,373 588,0 1083,-170 1490,-508 406,-340 682,-843 826,-1512zm2032 -1080c0,-1316 354,-2347 1063,-3092 708,-745 1621,-1117 2741,-1117 734,0 1394,176 1983,525 588,349 1038,837 1346,1464 309,625 464,1335 464,2128 0,804 -162,1525 -488,2159 -325,636 -785,1116 -1381,1442 -597,327 -1240,490 -1930,490 -748,0 -1416,-181 -2005,-542 -588,-360 -1035,-852 -1339,-1477 -303,-623 -454,-1283 -454,-1980zm1087 19c0,955 257,1708 770,2257 514,549 1159,824 1936,824 791,0 1440,-277 1952,-832 510,-554 765,-1342 765,-2362 0,-645 -109,-1209 -327,-1690 -218,-480 -538,-854 -957,-1118 -422,-264 -893,-398 -1417,-398 -743,0 -1382,256 -1918,766 -536,510 -804,1360 -804,2553zm7884 3847l0 -7942 3519 0c708,0 1246,72 1614,215 368,142 662,393 882,754 220,360 329,760 329,1196 0,564 -183,1039 -547,1425 -364,386 -926,630 -1688,736 279,133 490,266 634,395 307,281 597,634 869,1058l1373 2163 -1312 0 -1050 -1653c-305,-479 -558,-843 -756,-1096 -200,-253 -377,-429 -534,-531 -156,-100 -316,-170 -479,-211 -118,-24 -312,-36 -584,-36l-1217 0 0 3527 -1053 0zm1053 -4437l2256 0c480,0 854,-50 1124,-150 269,-98 475,-257 613,-477 141,-218 211,-454 211,-711 0,-376 -135,-686 -407,-928 -271,-243 -700,-363 -1286,-363l-2511 0 0 2629zm8753 4437l0 -7010 -2617 0 0 -932 6289 0 0 932 -2618 0 0 7010 -1054 0zm3063 0l3047 -7942 1155 0 3233 7942 -1196 0 -918 -2407 -3344 0 -862 2407 -1115 0zm2285 -3261l2707 0 -829 -2202c-249,-669 -438,-1222 -569,-1658 -109,517 -255,1026 -438,1529l-871 2331zm6006 3261l0 -7942 3520 0c708,0 1246,72 1614,215 368,142 662,393 882,754 220,360 329,760 329,1196 0,564 -183,1039 -547,1425 -365,386 -927,630 -1688,736 279,133 490,266 634,395 307,281 597,634 869,1058l1373 2163 -1312 0 -1050 -1653c-305,-479 -559,-843 -756,-1096 -200,-253 -377,-429 -535,-531 -155,-100 -316,-170 -478,-211 -119,-24 -313,-36 -585,-36l-1216 0 0 3527 -1054 0zm1054 -4437l2255 0c481,0 854,-50 1124,-150 270,-98 475,-257 614,-477 140,-218 211,-454 211,-711 0,-376 -135,-686 -407,-928 -272,-243 -701,-363 -1287,-363l-2510 0 0 2629z" class="fil7"/>
 </g>
</svg>