<svg xmlns:xlink="http://www.w3.org/1999/xlink" viewBox="0 0 57862 65297" style="shape-rendering:geometricPrecision; text-rendering:geometricPrecision; image-rendering:optimizeQuality; fill-rule:evenodd; clip-rule:evenodd" version="1.1" height="909.833mm" width="806.232mm" xml:space="preserve" xmlns="http://www.w3.org/2000/svg">
 <defs>
  <style type="text/css">
   path{fill-rule:evenodd;}
    .fil5 {fill:#373435}
    .fil0 {fill:#606062}
    .fil4 {fill:#FEFEFE}
    .fil3 {fill:#2323AB}
    .fil2 {fill:#E90912}
    .fil1 {fill:white}
    .fil6 {fill:black;fill-rule:nonzero}
   
  </style>
 </defs>
 <g id="Layer_x0020_1">
  <metadata id="CorelCorpID_0Corel-Layer"/>
  <rect height="65297" width="57862" class="fil0"/>
  <path d="M15729 55796c2053,267 4126,480 6218,637 156,12 385,23 687,34 465,16 966,73 1391,77 313,3 625,-6 936,10 1347,70 2682,25 4028,-3 553,-12 1211,-78 1820,-88 410,-6 1095,-231 1656,-191 1062,78 2123,162 3184,254 154,14 422,4 622,65 698,212 636,855 1602,764 735,-69 1476,-173 2213,-112 1027,85 2051,196 3072,334l1344 203c85,12 147,84 148,169 3,307 -644,283 -867,311 -4906,560 -9705,1465 -14416,2922 -24,8 -49,8 -73,0 -4446,-1440 -9210,-2991 -13204,-4184 -246,-73 -332,-122 -463,-365 -252,-467 -620,-466 -1088,-545 -199,-31 -790,-137 -927,-308 -15,-18 -22,-40 -22,-62 0,-42 25,-79 64,-93 147,-54 306,-68 480,-41 514,79 1046,150 1595,212z" class="fil1"/>
  <path d="M24239 58394c1986,324 4082,380 5736,177 3049,-375 6098,-800 9154,-1110 301,-31 602,-34 904,-9 1306,108 2607,260 3904,456 112,17 226,24 340,20 17,0 28,7 33,22 3,6 5,12 7,18 2,5 0,8 -5,9 -5070,582 -10078,1502 -14969,2975 -25,7 -49,6 -72,-2 -3637,-1205 -7286,-2370 -10948,-3495 -81,-25 -79,-31 3,-18 1972,318 3943,637 5913,957z" class="fil2"/>
  <path d="M23616 56743c1682,96 3387,51 5071,45 370,-2 1125,-47 2267,-137 524,-41 1107,-210 1692,-159 959,84 1919,162 2879,237 240,18 479,46 718,85 22,4 22,8 0,10 -2112,266 -4225,528 -6339,784 -2194,267 -4294,180 -6470,-165 -2583,-409 -5164,-827 -7744,-1253 -189,-31 -338,-170 -490,-197 -369,-65 -737,-134 -1103,-209 -6,-1 -11,-6 -11,-12 0,-7 6,-13 13,-13 0,0 1,0 1,0 258,27 573,87 770,116 3057,439 5742,698 8746,868z" class="fil3"/>
  <path d="M9733 9458c999,-736 2849,-2086 4267,-3248 1418,-1161 2404,-2133 2951,-2653 547,-520 655,-588 824,-581 169,7 398,88 459,250 61,162 -47,405 -338,1364 -290,959 -763,2633 -972,3538 -209,905 -155,1040 14,1121 168,81 452,108 1405,360 952,253 2574,730 3973,1320 1399,591 2577,1293 3307,1820 730,527 1014,878 1114,1267 99,389 15,815 -142,1096 -157,281 -387,416 -1427,977 -1039,560 -2889,1546 -4584,2559 -1695,1013 -3235,2052 -4416,2944 -1182,891 -2006,1634 -2492,2012 -486,378 -634,391 -1829,344 -1196,-47 -3437,-155 -4632,-229 -1196,-75 -1344,-115 -1466,-277 -121,-162 -216,-446 -189,-763 27,-318 176,-669 541,-1553 364,-885 945,-2303 1350,-3491 405,-1188 635,-2147 790,-3025 155,-878 236,-1674 277,-2302 40,-628 40,-1088 20,-1371 -20,-284 -61,-392 -7,-507 54,-114 203,-236 1202,-972z" class="fil4"/>
  <path d="M26115 7766c-973,405 -2846,1174 -3824,1603 -979,429 -1062,518 -1081,623 -18,104 29,225 205,340 175,115 478,225 1056,464 578,240 1430,610 2054,922 625,311 1021,565 1330,827 309,262 530,534 667,680 137,146 189,167 1170,-314 981,-482 2890,-1465 3837,-1980 947,-516 932,-563 212,-1018 -719,-455 -2142,-1318 -2969,-1826 -826,-507 -1056,-659 -1213,-735 -157,-75 -241,-75 -319,-55 -79,21 -152,63 -1125,469z" class="fil4"/>
  <path d="M29758 6148c299,26 247,44 -205,204 -451,160 -1303,461 -1680,645 -376,184 -277,250 1012,916 1290,667 3769,1934 5141,2799 1372,865 1636,1328 1846,1796 209,469 363,943 485,3125 53,968 69,2276 146,3603l372 6402c12,198 134,208 220,199 198,-22 474,-199 1058,-1852 584,-1653 1476,-4782 1994,-6501 518,-1719 661,-2028 1020,-2391 358,-364 931,-783 1702,-1328 87,-62 177,-125 269,-190l2202 0c82,0 208,-67 279,-149l470 -542c71,-82 62,-150 -20,-150l-1745 0c314,-226 598,-437 810,-606 523,-418 600,-584 589,-699 -11,-116 -110,-182 -1465,-254 -1356,-71 -3967,-149 -5389,-226 -1422,-77 -1653,-154 -1802,-248 -148,-93 -215,-204 -49,-352 165,-149 562,-336 1460,-639 898,-304 2297,-722 4182,-1163 1884,-441 4253,-904 6099,-1207 1846,-303 3168,-446 3989,-534 821,-88 1141,-121 1620,-314 479,-193 1119,-546 1422,-755 303,-209 270,-276 214,-375 -55,-99 -132,-231 -275,-281 -143,-49 -353,-16 -645,-22 -292,-5 -666,-49 -903,-115 -237,-67 -336,-155 -425,-243 -88,-88 -165,-176 -281,-231 -115,-55 -270,-77 -4110,-298 -3840,-220 -11367,-639 -15201,-848 -3835,-210 -3978,-210 -4094,-155 -116,55 -204,166 -198,281 5,116 104,237 407,403 303,165 810,374 1053,490 242,116 220,138 -441,286 -661,149 -1962,425 -2667,601 -705,176 -815,253 -854,364 -38,110 -5,253 138,336 143,82 397,104 848,132 452,28 1102,61 1402,86z" class="fil4"/>
  <path d="M49817 6157l279 22 -472 330c-180,125 -361,251 -541,376l-58 40 -6042 -303 -7 -1c-354,-42 -711,-20 -1067,-71 -368,-53 -743,-44 -1112,-84 -202,-23 -405,-35 -608,-37 -62,0 -121,-17 -174,-48 -321,-188 -646,-369 -967,-557 -222,-130 -444,-262 -660,-402 -122,-79 -372,-220 -395,-377 -1,-12 -2,-25 -2,-38 0,-73 30,-139 79,-186 -475,22 -980,132 -1458,231l1268 727c93,54 160,150 128,263 -33,118 -137,162 -247,159 -802,-22 -1603,-56 -2404,-104 -387,-23 -835,-381 -1167,-597 -561,121 -1122,235 -1686,341 -226,43 -455,56 -684,39 -676,-48 -2538,-193 -3214,-247 -380,-30 -266,-72 106,-150l3926 -826 -1768 -959c-233,-123 -122,-164 147,-152 826,37 2112,101 2938,140 447,22 896,304 1290,505 775,-131 1554,-353 2347,-257 244,29 492,59 737,72 2036,115 4073,217 6110,306 92,4 209,53 280,112 47,39 79,93 92,152l188 -113c60,-36 106,-52 178,-48l7390 398 -453 340c-154,116 -303,238 -460,351l-60 43 -73 -4c-258,-15 -515,-30 -773,-46l-418 297c-171,122 -342,243 -513,363zm-6133 -903c-146,52 -292,104 -439,155 -380,131 -817,126 -1240,106l749 297 930 -558z" class="fil5"/>
  <path d="M46611 5433l3600 194c-172,122 -348,246 -520,367 -43,1 -88,-1 -133,-5 -543,-44 -1991,-104 -3601,-180 -22,-1 -41,5 -58,18l-288 225c-36,28 -31,45 13,51 100,13 223,24 369,31 576,29 1261,77 2056,145 192,16 1151,37 1457,61 -202,141 -387,270 -541,376l-5965 -300c-357,-42 -703,-18 -1062,-70 -371,-53 -765,-46 -1119,-85 -208,-23 -418,-36 -628,-38 -25,0 -49,-7 -72,-20 -227,-133 -1905,-1070 -1922,-1188 0,-2 0,-5 0,-8 0,-29 23,-53 53,-53 1,0 2,0 3,0 613,29 1213,60 1801,94 309,18 598,-49 866,-201 14,-8 23,-24 23,-41 0,-24 -19,-45 -44,-46 -821,-47 -1649,-95 -2485,-144 -726,-42 -1599,202 -2320,326 -11,2 -20,12 -20,24 0,9 5,18 13,22l1691 970c46,26 42,38 -11,37 -802,-22 -1601,-56 -2398,-103 -334,-21 -819,-409 -1107,-590 -20,-13 -46,-18 -71,-13 -575,125 -1150,242 -1725,350 -207,39 -418,51 -631,36 -677,-49 -1353,-100 -2027,-154 -137,-10 -139,-30 -4,-58l3365 -707c4,-1 8,-3 11,-5 11,-9 13,-26 4,-37 -3,-3 -6,-6 -9,-8l-1714 -900c-40,-21 -37,-30 8,-28 832,37 1659,75 2476,114 405,20 871,314 1232,495 23,12 47,16 72,12 761,-126 1547,-354 2318,-261 329,40 580,65 751,74 2036,115 4074,217 6112,306 48,2 123,36 157,64 15,13 24,32 24,52 0,27 -17,52 -42,62 -461,184 -924,356 -1391,518 -505,175 -1191,81 -1727,70 -1,0 -1,0 -1,0 -62,0 -112,50 -112,112 0,45 27,85 69,103l1331 528c21,9 47,7 67,-5l2300 -1382c24,-15 33,-21 61,-20l6825 368c-136,102 -280,221 -458,349 -1072,-61 -3309,-210 -4380,-272 -21,-1 -42,4 -59,15l-495 309c-41,26 -37,41 12,44z" class="fil4"/>
  <g id="_324886672">
   <path d="M42483 11096c-250,186 -2465,1796 -3519,2708 -660,571 -571,628 -659,1443 -379,3507 -741,7002 -1126,10507 -1,6 -3,10 -7,14 -2,2 -4,5 -6,7 -34,100 -277,17 -292,-144 -256,-3037 -392,-6679 -514,-9784 -53,-943 -88,-1761 -215,-2470 144,-128 3058,-2258 3278,-2410l3060 129z" class="fil2"/>
   <path d="M45603 11279c-601,434 -5076,3358 -5306,4190 -567,2051 -1584,5493 -2758,9847 -29,109 -262,519 -225,229 569,-3472 1111,-6572 1683,-10044 130,-787 102,-892 778,-1444 1196,-977 3655,-2714 3951,-2910l1877 132z" class="fil3"/>
  </g>
  <path d="M47721 7477c-257,158 -529,140 -763,182 -763,138 -1522,285 -2275,440 -1853,389 -3765,825 -5563,1394 -66,21 -196,26 -390,16 -1894,-105 -3277,-178 -4150,-219 -714,-32 -1344,233 -1992,513 -61,26 -130,23 -187,-7l-2663 -1422c-63,-33 -62,-63 4,-90 1029,-419 2088,-814 3126,-1263 562,-243 1145,-347 1750,-313 4338,243 8763,529 13103,769z" class="fil2"/>
  <path d="M32080 10051c14,-9 26,13 34,64l-5614 2816c-45,22 -99,14 -135,-21 -804,-780 -1840,-1278 -2866,-1704 -8,-3 -13,-12 -13,-21 0,-9 5,-17 13,-20l6033 -2651c28,-12 56,-11 84,4 844,471 1665,982 2464,1533z" class="fil2"/>
  <path d="M5897 23602l-80 16c-25,5 -53,-4 -70,-25 -38,-46 -88,-71 -153,-73 -30,-1 -51,-16 -61,-46l-32 -92c-8,-22 -22,-29 -45,-21 -7,4 -15,5 -23,4 -16,-2 -17,-7 -5,-17l24 -17c10,-7 14,-17 13,-30 -41,-322 -20,-838 255,-1040 25,-18 44,-42 55,-72 474,-1186 950,-2372 1427,-3557 10,-23 27,-43 49,-55l33 -17c5249,-2584 10582,-4967 15997,-7148 41,-17 81,-15 121,5 963,466 1873,964 2678,1694 65,59 56,104 -25,137 -7010,2818 -13806,6489 -20158,10354z" class="fil2"/>
  <path d="M41942 6655c-393,-11 -782,-26 -1166,-45 -960,-47 -1911,-115 -2883,-137 -1037,-24 -2074,-151 -3106,-158 -603,-3 -1188,-70 -1761,149 -1309,503 -2614,1014 -3916,1532 -25,10 -48,9 -71,-3l-1046 -551 -75 -68 3853 -1479 35 -16 14 1c229,17 458,4 684,-39 564,-106 1125,-220 1686,-341 332,216 780,574 1167,597 801,48 1602,82 2404,104 110,3 214,-41 247,-159 32,-113 -35,-209 -128,-263l-1268 -727c442,-91 908,-193 1351,-225l97 4c-43,47 -69,108 -69,176 0,13 1,26 2,38 23,157 273,298 395,377 216,140 438,272 660,402 321,188 646,369 967,557 53,31 112,48 174,48 203,2 406,14 608,37 369,40 744,31 1112,84 356,51 713,29 1067,71l7 1 6042 303 58 -40c180,-125 361,-251 541,-376l472 -330 -279 -22c171,-120 342,-241 513,-363l418 -297c258,16 515,31 773,46l73 4 60 -43c37,-27 75,-55 112,-83l4293 184c-3,88 -45,131 -127,127 -24,0 -46,10 -61,28 -68,80 -149,135 -243,163 -671,202 -1236,714 -1939,798 -1061,126 -2160,212 -3218,362 -66,9 -147,10 -244,4 -113,-7 -195,2 -246,27l-8039 -459zm1742 -1401c-146,52 -292,104 -439,155 -380,131 -817,126 -1240,106l749 297 930 -558z" class="fil3"/>
  <path d="M42345 5547l773 -31c29,-2 57,-11 82,-26 54,-36 116,-46 186,-31 36,8 40,23 12,47 -150,125 -321,218 -511,276 -15,5 -29,5 -43,-1l-506 -194c-4,-2 -8,-4 -10,-7 -6,-10 -4,-22 6,-29 3,-2 7,-4 11,-4l0 0z" class="fil3"/>
  <path d="M27787 7541c38,22 76,26 112,11l1067 593c8,4 14,14 14,24 0,11 -7,21 -17,25l-6183 2679c-25,11 -50,12 -75,2l-1389 -518c-18,-7 -33,-17 -46,-30 -50,-50 -50,-131 1,-181 12,-13 27,-23 44,-29l6472 -2576z" class="fil3"/>
  <path d="M7575 17638c-4,-8 -7,-15 -11,-21 -6,-14 -7,-28 -2,-43 71,-207 517,-1802 558,-1831 4010,-2035 8186,-3846 12529,-5432 228,-84 1464,505 1761,639 12,5 19,16 19,29 0,13 -8,25 -20,30 -5018,2025 -9963,4235 -14834,6629z" class="fil3"/>
  <path d="M44396 12782l1016 0 -135 141 19 43 243 -104c16,-6 56,-24 68,-37 2,-2 4,-5 6,-8l27 -35 436 0 18 157 -77 17c-22,5 -45,12 -67,20 -36,13 -71,29 -107,45l-570 243 -95 99 89 111 -5228 0 4 -219 -8 0 -105 109 84 110 -1200 0 452 -171c34,-12 64,-30 90,-55l341 -356 -81 -110 1131 0c50,0 104,0 154,6 37,4 75,13 104,32 87,53 77,148 13,218l-92 97 520 -258 -117 -95 856 0 -30 492c12,-8 23,-17 34,-27l340 -355 -81 -110 1948 0zm106 99l-198 72c-34,13 -64,32 -88,55l-196 205 209 0c48,0 97,-5 144,-17l279 -72 -63 -136 -1 -2c-6,-15 -17,-40 -29,-51l-57 -54zm147 318l-138 105 3 -1c34,-13 64,-31 88,-54l47 -50zm-1067 -389l-390 143c-34,13 -64,32 -89,55l-195 205 209 0c48,0 97,-5 143,-17l120 -31 261 -273 -59 -82zm-2576 655l383 -131 -255 0 -121 62c-4,1 -9,4 -14,7l7 62zm-2656 -1474l-651 0c-128,0 -282,3 -407,31l-394 89 575 -440 1467 0c80,0 166,0 245,9 51,6 106,19 150,47 110,71 97,185 14,269l-107 114c-32,35 -69,64 -111,86 -29,14 -61,26 -93,34 12,51 -10,108 -54,156l-114 123c-71,74 -158,125 -256,155 -68,21 -139,36 -210,44 -92,10 -188,11 -280,11l-1588 0 214 -373 66 18c50,14 102,23 155,28 86,7 176,7 262,7l553 0c49,0 114,1 159,-6 10,-2 25,-6 33,-11 12,-7 24,-19 33,-29l-400 0c-80,0 -169,0 -249,11l-245 32 353 -377 44 5c71,8 145,9 217,9l447 0c32,0 97,0 128,-8 14,-4 29,-18 38,-28l6 -6zm1983 -320l1192 0c108,0 262,8 354,71 55,38 91,94 81,162 -9,60 -56,117 -96,160l-357 382c-46,50 -98,95 -157,129 -63,36 -135,63 -205,84 -141,43 -288,60 -435,60l-1192 0c-109,0 -263,-8 -356,-72 -54,-38 -92,-93 -81,-162 8,-59 55,-116 95,-159l358 -383c46,-49 98,-94 157,-128 63,-37 136,-63 206,-84 141,-43 288,-60 436,-60zm2466 0l1192 0c108,0 262,8 354,71 55,38 92,94 81,162 -9,60 -56,117 -96,160l-357 382c-46,50 -98,95 -157,129 -63,36 -135,63 -205,84 -141,43 -288,60 -435,60l-1192 0c-109,0 -263,-8 -356,-72 -54,-38 -92,-93 -81,-162 8,-59 55,-116 95,-159l358 -383c46,-49 98,-94 157,-128 63,-37 136,-63 206,-84 141,-43 289,-60 436,-60zm-2684 728c3,0 6,0 9,0l250 0c46,0 117,-1 161,-15 29,-9 54,-30 74,-51l320 -342c-4,0 -7,0 -9,0l-250 0c-46,0 -117,1 -161,14 -29,9 -54,30 -74,52l-320 342zm2466 0c3,0 6,0 9,0l250 0c46,0 117,-1 161,-15 29,-9 54,-29 74,-51l320 -342c-4,0 -7,0 -9,0l-250 0c-46,0 -117,1 -161,14 -29,9 -54,30 -74,52l-320 342z" class="fil4"/>
  <path d="M37350 12276l154 -165c60,7 136,10 227,10l447 0c74,0 125,-4 151,-11 27,-8 54,-25 80,-53l77 -83c26,-27 32,-46 19,-56 -14,-10 -52,-15 -116,-15l-690 0c-186,0 -329,11 -427,33l231 -177 1437 0c107,0 185,3 234,9 50,6 87,17 113,33 53,35 52,79 -3,135l-106 114c-27,29 -56,51 -87,67 -31,16 -72,29 -124,39 -43,9 -74,14 -93,16 -18,1 -114,6 -286,13 38,1 62,1 74,2 81,1 139,3 174,8 36,4 64,13 86,25 42,23 41,59 -2,106l-114 122c-58,61 -130,104 -218,132 -63,19 -128,33 -193,40 -66,7 -156,11 -271,11l-1435 0 103 -182c56,16 113,26 171,31 58,5 148,7 270,7l553 0c87,0 146,-3 176,-8 25,-5 46,-12 62,-21 16,-10 33,-25 53,-46l79 -84c26,-29 35,-46 25,-53 -9,-7 -47,-10 -114,-10l-456 0c-116,0 -203,4 -261,11zm2983 -517l1192 0c149,0 250,19 304,56 34,24 48,49 44,76 -4,27 -28,65 -73,112l-358 383c-44,48 -90,85 -137,112 -46,28 -108,53 -185,77 -124,37 -260,55 -410,56l-1192 0c-150,-1 -252,-19 -305,-56 -34,-24 -49,-49 -45,-77 4,-27 28,-64 73,-112l357 -383c45,-47 91,-85 137,-112 47,-27 109,-52 187,-76 123,-37 260,-56 411,-56zm37 238l-370 396c-36,38 -45,63 -29,75 16,13 67,19 153,19l250 0c86,0 148,-6 187,-19 40,-12 77,-37 113,-75l370 -396c36,-38 45,-63 29,-76 -17,-12 -67,-18 -153,-18l-250 0c-86,0 -148,6 -188,18 -39,13 -76,38 -112,76zm2429 -238l1192 0c149,0 250,19 304,56 34,24 48,49 44,76 -4,27 -28,65 -73,112l-357 383c-45,48 -91,85 -138,112 -46,28 -108,53 -185,77 -124,37 -260,55 -410,56l-1192 0c-150,-1 -252,-19 -305,-56 -34,-24 -49,-49 -45,-77 4,-27 28,-64 73,-112l357 -383c45,-47 91,-85 137,-112 47,-27 109,-52 187,-76 123,-37 260,-56 411,-56zm37 238l-370 396c-36,38 -45,63 -29,75 16,13 67,19 153,19l250 0c86,0 148,-6 188,-19 39,-12 76,-37 112,-75l370 -396c36,-38 45,-63 29,-76 -17,-12 -67,-18 -153,-18l-250 0c-86,0 -148,6 -188,18 -39,13 -76,38 -112,76zm-2702 1169l-137 0 -137 144c-30,33 -37,59 -24,76l-539 0c48,-18 88,-43 122,-76l347 -363c29,-33 38,-59 25,-77l956 0c66,0 114,2 144,6 31,3 53,10 68,20 30,18 28,45 -5,81l-106 112c-23,23 -45,40 -69,51 -43,18 -91,27 -147,27 -8,0 -17,0 -30,-1l17 150c2,27 9,50 22,70l-512 0 5 -220zm-55 -85l247 0c38,0 65,-3 82,-8 16,-6 34,-18 52,-37l25 -25c24,-26 33,-42 28,-47 -5,-6 -31,-9 -79,-9l-235 0 -120 126zm1499 -211l513 0 -27 455c1,22 12,43 32,61l-585 0c29,-10 50,-22 62,-34 14,-15 20,-31 19,-51l-1 -55 -478 0 -140 71c-26,13 -45,25 -54,35 -9,9 -12,20 -10,34l-326 0c75,-25 152,-58 231,-97l781 -388c0,-12 -6,-22 -17,-31zm14 293l4 -160 -316 160 312 0zm1691 119l-138 104 -1015 0c47,-18 88,-43 122,-76l346 -363c30,-33 38,-59 25,-77l539 0c-47,17 -88,43 -122,77l-339 354 416 0c63,-1 119,-7 166,-19zm1112 0l-137 104 -1016 0c48,-18 88,-43 122,-76l347 -363c29,-33 38,-59 24,-77l539 0c-47,17 -87,43 -122,77l-339 354 416 0c64,-1 119,-7 166,-19zm856 -201l323 -137c47,-21 80,-40 97,-58 3,-3 8,-9 13,-16l313 0c-29,7 -55,15 -78,23 -22,8 -59,24 -111,47l-586 250 -115 120c-30,33 -38,59 -24,76l-539 0c47,-17 87,-43 122,-76l114 -120 -110 -237c-15,-38 -32,-65 -50,-83l585 0c-13,14 -21,27 -23,37 -1,10 2,24 9,42l60 132z" class="fil6"/>
  <path d="M48255 32158c-999,-736 -2850,-2086 -4268,-3248 -1417,-1161 -2403,-2133 -2950,-2653 -547,-520 -655,-588 -824,-581 -169,7 -398,88 -459,250 -61,162 47,405 338,1364 290,958 763,2633 972,3538 209,905 155,1040 -14,1121 -168,81 -452,108 -1405,360 -952,252 -2574,730 -3973,1320 -1399,590 -2577,1293 -3307,1820 -730,526 -1014,878 -1114,1267 -99,388 -15,815 142,1096 157,281 387,416 1427,977 1039,560 2889,1546 4584,2559 1695,1012 3234,2052 4416,2944 1182,891 2005,1634 2492,2012 486,378 634,391 1829,344 1196,-47 3437,-155 4632,-230 1195,-74 1344,-114 1466,-276 121,-162 216,-446 189,-763 -27,-318 -176,-669 -541,-1553 -364,-885 -945,-2303 -1350,-3491 -405,-1189 -635,-2147 -790,-3025 -155,-878 -236,-1675 -277,-2303 -40,-628 -40,-1087 -20,-1370 20,-284 61,-392 7,-507 -54,-115 -203,-236 -1202,-972z" class="fil4"/>
  <path d="M31873 30465c973,406 2846,1175 3824,1604 978,429 1062,518 1080,622 19,105 -28,225 -204,340 -175,116 -478,225 -1056,465 -578,240 -1430,610 -2054,921 -625,312 -1021,565 -1330,828 -309,262 -531,534 -667,680 -137,146 -189,167 -1170,-314 -981,-482 -2891,-1465 -3837,-1981 -947,-515 -932,-562 -212,-1017 719,-455 2142,-1318 2969,-1826 826,-507 1056,-659 1213,-735 157,-76 241,-76 319,-55 79,21 152,63 1125,468z" class="fil4"/>
  <path d="M30004 29667c487,213 388,279 -901,946 -1290,667 -3769,1934 -5141,2799 -1372,865 -1636,1328 -1846,1796 -209,469 -363,942 -485,3124 -73,1325 -86,3282 -195,5062l-298 4853c-17,281 -147,300 -245,289 -198,-22 -474,-198 -1058,-1851 -584,-1653 -1476,-4782 -1994,-6501 -518,-1719 -662,-2028 -1020,-2392 -358,-363 -931,-782 -1702,-1328 -96,-68 -196,-137 -297,-209l-3003 0c-82,0 -91,-67 -19,-149l469 -542c71,-82 197,-150 280,-150l1088 0c-304,-219 -577,-422 -783,-586 -523,-419 -600,-584 -589,-700 11,-115 110,-181 1465,-253 1356,-72 3967,-149 5389,-226 1421,-77 1653,-154 1802,-248 148,-94 215,-204 49,-353 -165,-148 -562,-336 -1460,-639 -898,-303 -2297,-721 -4182,-1162 -1884,-441 -4253,-904 -6099,-1207 -1846,-303 -3168,-446 -3989,-534 -821,-89 -1141,-122 -1620,-314 -479,-193 -1119,-546 -1422,-755 -303,-210 -270,-276 -214,-375 55,-99 132,-231 275,-281 143,-50 353,-16 645,-22 292,-5 4716,-345 4952,-411 237,-66 337,-154 425,-242 155,-153 403,-226 717,-240 4216,-227 12493,-659 16896,-895 4403,-236 4477,-299 4550,-138 72,161 -280,429 -557,677l-1884 1685c-350,312 -509,404 -34,652 474,247 1548,607 2035,820z" class="fil4"/>
  <path d="M27086 27878l261 -8 -406 378c-155,144 -310,287 -465,431l-50 46 -5637 327 -6 0c-334,-5 -663,54 -998,41 -347,-15 -693,34 -1040,31 -190,-1 -379,9 -568,28 -57,5 -113,-5 -166,-30 -316,-154 -635,-299 -951,-453 -219,-107 -438,-215 -652,-331 -121,-66 -366,-181 -403,-334 -3,-12 -5,-25 -6,-37 -7,-73 15,-142 55,-194 -438,71 -897,234 -1330,381l1248 592c91,43 162,132 144,248 -20,120 -112,175 -214,183 -746,62 -1494,112 -2241,148 -362,17 -812,-293 -1142,-473 -508,179 -1018,351 -1531,515 -205,66 -417,103 -631,110 -632,23 -2374,73 -3007,89 -355,10 -254,-43 85,-160l3562 -1231 -1733 -769c-229,-97 -130,-150 121,-166 770,-49 1970,-120 2740,-167 417,-25 861,208 1246,367 707,-210 1409,-512 2154,-500 229,4 462,7 691,-4 1900,-99 3800,-209 5699,-333 86,-5 200,31 271,82 48,35 83,85 101,142l163 -132c52,-42 93,-63 161,-67l6896 -374 -387 386c-132,131 -258,268 -393,397l-51 49 -68 4c-241,12 -481,24 -722,35l-359 339c-147,138 -294,276 -441,414zm-5780 -260c-130,68 -260,135 -392,200 -340,171 -746,211 -1140,235l724 217 808 -652z" class="fil5"/>
  <path d="M24040 27492l3360 -183c-148,140 -299,282 -447,420 -40,5 -81,8 -124,9 -508,13 -1857,104 -3359,196 -21,2 -38,10 -52,24l-246 254c-30,31 -24,47 18,49 93,3 209,0 345,-8 537,-31 1178,-54 1922,-70 180,-4 1072,-82 1358,-91 -174,162 -333,309 -465,431l-5565 323c-336,-5 -654,55 -993,41 -350,-14 -714,34 -1046,31 -196,-1 -391,9 -587,29 -23,2 -46,-3 -68,-13 -225,-109 -1872,-866 -1900,-981 0,-3 -1,-5 -1,-8 -3,-29 17,-55 44,-58 1,0 2,0 3,0 571,-36 1132,-67 1680,-95 290,-14 551,-111 784,-290 13,-10 20,-26 18,-43 -2,-25 -22,-43 -45,-42 -766,39 -1540,78 -2320,117 -678,33 -1465,367 -2121,565 -11,3 -18,15 -17,26 1,9 6,17 14,21l1664 788c45,21 43,34 -7,38 -746,62 -1491,111 -2235,147 -312,15 -800,-321 -1085,-471 -20,-11 -44,-13 -67,-6 -522,185 -1044,361 -1567,528 -189,61 -383,94 -582,102 -633,22 -1265,41 -1896,58 -128,4 -132,-16 -9,-58l3053 -1053c4,-2 8,-4 10,-7 10,-10 10,-26 0,-37 -2,-3 -5,-5 -9,-6l-1678 -717c-39,-17 -37,-26 5,-29 775,-50 1547,-98 2309,-144 378,-23 839,221 1191,364 23,9 45,11 69,4 693,-205 1401,-513 2126,-501 309,6 543,4 703,-5 1901,-98 3802,-208 5702,-332 45,-3 118,23 152,47 16,11 26,29 28,49 2,28 -11,54 -33,67 -410,230 -823,450 -1241,660 -452,226 -1098,205 -1596,249 0,0 -1,0 -1,0 -57,6 -99,61 -93,123 5,45 34,83 74,95l1286 387c21,7 45,2 63,-12l1999 -1614c22,-17 29,-25 55,-26l6370 -345c-116,115 -239,248 -391,395 -1001,51 -3091,135 -4092,186 -19,1 -38,8 -53,21l-429 359c-36,30 -31,44 15,42z" class="fil4"/>
  <path d="M10209 30162c258,158 530,140 763,182 764,139 1522,285 2275,440 1854,389 3823,840 5621,1409 66,21 196,26 390,15 1894,-105 3277,-177 4150,-218 714,-33 1344,232 1992,513 61,26 130,23 187,-8l2663 -1421c63,-34 61,-64 -4,-90 -1029,-419 -2088,-814 -3126,-1263 -562,-243 -1145,-347 -1750,-313 -4338,243 -8821,514 -13161,754z" class="fil2"/>
  <path d="M25908 32751c-14,-9 -26,12 -34,64l5613 2816c46,22 100,14 136,-21 804,-780 1840,-1278 2866,-1704 8,-4 13,-12 13,-21 0,-9 -5,-17 -13,-20l-6033 -2651c-28,-13 -56,-11 -84,4 -844,471 -1665,982 -2464,1533z" class="fil2"/>
  <path d="M52091 46302l80 16c25,5 53,-5 70,-26 38,-46 88,-70 153,-73 30,-1 51,-16 61,-45l32 -92c8,-22 22,-29 45,-21 7,3 15,4 23,3 16,-1 17,-7 5,-16l-24 -17c-10,-7 -14,-17 -13,-30 41,-323 20,-838 -255,-1040 -25,-18 -44,-42 -55,-72 -474,-1186 -950,-2372 -1427,-3557 -10,-24 -27,-43 -49,-55l-33 -18c-5249,-2584 -10582,-4966 -15997,-7147 -41,-17 -81,-15 -121,4 -963,466 -1873,964 -2678,1695 -65,58 -57,104 25,137 7010,2817 13806,6489 20158,10354z" class="fil2"/>
  <path d="M30201 30241c-38,22 -76,26 -112,11l-1067 592c-9,5 -14,14 -14,24 0,11 7,21 17,26l6183 2679c25,11 50,12 75,2l1389 -519c18,-6 33,-16 46,-29 50,-50 50,-131 -1,-181 -12,-13 -27,-23 -44,-29l-6472 -2576z" class="fil3"/>
  <path d="M50413 40337c4,-7 7,-14 10,-21 7,-13 7,-27 3,-42 -71,-207 -517,-1802 -558,-1831 -4010,-2036 -8186,-3846 -12529,-5433 -228,-83 -1464,505 -1761,639 -12,6 -19,17 -19,30 0,13 8,25 20,30 5018,2025 9963,4235 14834,6628z" class="fil3"/>
  <path d="M15540 33815c250,186 2444,1710 3497,2622 661,571 572,629 660,1444 379,3506 741,7001 1126,10507 0,5 2,9 7,14 2,2 4,4 6,6 34,100 276,17 292,-144 256,-3036 392,-6678 514,-9784 52,-942 87,-1761 214,-2470 -143,-128 -3058,-2258 -3278,-2409 -602,161 -2257,0 -3038,214z" class="fil2"/>
  <path d="M12427 33970c601,434 5048,3300 5278,4132 566,2051 1584,5493 2757,9847 30,110 262,520 225,229 -569,-3472 -1110,-6572 -1683,-10043 -130,-788 -102,-893 -778,-1445 -1195,-977 -3625,-2657 -3922,-2852l-1877 132z" class="fil3"/>
  <path d="M17089 35482l1016 0 -135 141 19 43 243 -104c16,-7 56,-25 68,-37 2,-2 5,-5 6,-8l27 -35 436 0 18 156 -77 18c-22,5 -45,11 -67,19 -35,13 -71,30 -107,46l-570 243 -95 99 90 111 -5229 0 5 -220 -9 0 -105 110 85 110 -1201 0 452 -171c34,-13 64,-31 90,-56l341 -356 -81 -109 1131 0c50,0 104,0 154,6 37,4 75,13 104,32 87,53 77,148 13,218l-92 97 520 -258 -117 -95 856 0 -30 492c12,-8 24,-17 34,-27l340 -356 -80 -109 1947 0zm106 98l-198 73c-34,13 -64,31 -88,55l-196 204 209 0c48,0 97,-4 144,-16l279 -73 -63 -135 0 -2c-6,-15 -18,-41 -30,-52l-57 -54zm147 319l-137 105 2 -1c34,-13 64,-31 88,-55l47 -49zm-1067 -389l-390 143c-34,13 -64,31 -88,55l-196 204 209 0c48,0 97,-4 144,-16l119 -31 262 -274 -60 -81zm-2576 655l383 -131 -255 0 -121 61c-3,2 -8,5 -14,7l7 63zm6059 -1795l1193 0c108,0 262,8 354,72 55,38 91,94 81,162 -9,60 -56,117 -96,160l-357 382c-46,50 -99,94 -157,129 -63,36 -135,63 -205,84 -141,42 -288,60 -435,60l-1192 0c-109,0 -264,-8 -356,-72 -54,-38 -92,-93 -82,-162 9,-60 56,-117 96,-159l358 -383c46,-50 98,-94 157,-128 63,-37 136,-64 206,-85 141,-42 288,-60 435,-60zm-2466 0l1193 0c108,0 262,8 354,72 55,38 91,94 81,162 -9,60 -56,117 -96,160l-357 382c-46,50 -99,94 -157,129 -63,36 -135,63 -205,84 -141,42 -288,60 -435,60l-1192 0c-109,0 -263,-8 -356,-72 -54,-38 -92,-93 -82,-162 9,-60 56,-117 96,-159l358 -383c46,-50 98,-94 157,-128 63,-37 136,-64 206,-85 141,-42 288,-60 435,-60zm-1982 321l-651 0c-128,0 -282,2 -408,31l-393 89 575 -441 1467 0c80,0 166,0 245,10 51,6 106,18 149,47 111,71 98,184 15,269l-107 114c-32,34 -69,64 -111,85 -30,15 -61,26 -94,35 12,51 -9,108 -53,156l-115 123c-70,74 -158,124 -255,155 -69,21 -139,36 -210,43 -92,10 -188,12 -280,12l-1588 0 213 -373 66 18c51,14 103,23 156,27 86,8 176,7 262,7l553 0c48,0 114,2 159,-6 9,-1 25,-5 33,-10 12,-7 24,-19 33,-29l-400 0c-81,0 -169,0 -250,11l-244 32 353 -378 44 5c71,8 145,9 216,9l448 0c32,0 97,1 127,-7 14,-4 30,-18 39,-29l6 -5zm4231 407c3,0 6,0 9,0l250 0c46,0 117,0 161,-14 29,-9 54,-30 74,-51l319 -342c-3,0 -6,0 -8,0l-250 0c-46,0 -117,0 -161,14 -29,9 -54,30 -74,52l-320 341zm-2466 0c3,0 6,0 9,0l250 0c46,0 117,0 161,-14 29,-9 54,-30 74,-51l319 -342c-3,0 -6,0 -8,0l-250 0c-46,0 -117,0 -161,14 -29,9 -54,30 -74,52l-320 341z" class="fil4"/>
  <path d="M12772 35781l247 0c38,0 65,-3 82,-8 17,-6 34,-18 52,-37l25 -26c24,-25 33,-41 28,-46 -5,-6 -31,-9 -79,-9l-235 0 -120 126zm55 85l-137 0 -137 144c-29,33 -37,58 -24,76l-538 0c47,-18 87,-44 121,-76l347 -364c30,-33 38,-58 25,-76l956 0c66,0 114,2 144,5 31,4 53,10 68,20 30,18 28,46 -5,82l-106 111c-22,24 -45,41 -69,51 -42,19 -91,28 -147,28 -7,0 -17,0 -30,-1l17 149c2,27 9,51 22,71l-512 0 5 -220zm1444 -296l513 0 -27 455c1,22 12,42 32,61l-585 0c29,-10 50,-22 63,-35 13,-14 19,-31 18,-50l-1 -55 -478 0 -140 71c-26,13 -45,25 -54,35 -8,9 -12,20 -10,34l-326 0c75,-26 152,-58 231,-97l781 -388c0,-12 -6,-22 -17,-31zm14 293l4 -160 -316 160 312 0zm1691 118l-137 105 -1016 0c47,-18 88,-44 122,-77l347 -362c29,-34 37,-59 24,-77l539 0c-47,17 -87,43 -122,77l-339 354 416 0c64,-1 119,-7 166,-20zm1112 0l-137 105 -1016 0c48,-18 88,-44 122,-77l347 -362c29,-34 38,-59 25,-77l538 0c-47,17 -87,43 -122,77l-338 354 415 0c64,-1 119,-7 166,-20zm856 -200l323 -138c47,-20 80,-39 97,-57 3,-4 8,-9 13,-16l314 0c-30,7 -56,14 -79,23 -22,8 -59,24 -111,47l-586 250 -115 119c-30,34 -38,60 -24,77l-539 0c47,-17 87,-43 122,-77l114 -119 -110 -238c-15,-37 -32,-65 -50,-82l585 0c-13,14 -21,26 -23,37 -1,10 2,24 10,41l59 133zm1852 -1085l-370 397c-36,38 -46,63 -29,75 16,13 67,19 153,19l250 0c86,0 148,-6 187,-19 40,-12 77,-37 112,-75l371 -397c35,-38 45,-63 29,-75 -17,-13 -67,-19 -153,-19l-250 0c-86,0 -148,6 -188,19 -39,12 -77,37 -112,75zm-38 -237l1193 0c149,0 250,19 304,56 33,23 48,49 44,76 -4,27 -29,65 -73,112l-358 383c-44,48 -90,85 -137,112 -47,28 -108,53 -186,76 -123,37 -259,56 -409,57l-1192 0c-150,-1 -252,-20 -306,-57 -33,-23 -49,-48 -44,-76 4,-27 28,-64 73,-112l357 -383c45,-47 90,-85 137,-112 47,-27 109,-53 187,-76 123,-37 260,-56 410,-56zm-2428 237l-370 397c-36,38 -46,63 -29,75 16,13 67,19 153,19l250 0c86,0 148,-6 187,-19 40,-12 77,-37 112,-75l371 -397c35,-38 45,-63 29,-75 -17,-13 -67,-19 -153,-19l-250 0c-86,0 -148,6 -188,19 -39,12 -77,37 -112,75zm-38 -237l1193 0c149,0 250,19 304,56 33,23 48,49 44,76 -4,27 -29,65 -73,112l-358 383c-44,48 -90,85 -137,112 -47,28 -108,53 -186,76 -123,37 -259,56 -409,57l-1192 0c-150,-1 -252,-20 -306,-57 -33,-23 -49,-48 -44,-76 4,-27 28,-64 73,-112l357 -383c45,-47 90,-85 137,-112 47,-27 109,-53 187,-76 123,-37 260,-56 410,-56zm-2982 517l154 -165c60,7 135,10 226,10l448 0c74,0 124,-4 151,-11 27,-8 54,-26 80,-53l77 -83c26,-28 32,-47 19,-57 -14,-10 -52,-15 -116,-15l-690 0c-187,0 -329,11 -427,34l231 -177 1437 0c107,0 185,3 234,9 50,5 87,16 113,33 53,34 52,79 -3,135l-106 114c-27,29 -57,51 -88,67 -31,16 -72,29 -123,39 -43,9 -74,14 -93,15 -19,2 -114,7 -287,14 39,1 63,1 75,2 80,0 138,3 174,8 35,4 64,12 86,25 42,23 41,58 -2,106l-115 122c-57,60 -129,104 -218,132 -62,19 -127,32 -193,40 -65,7 -156,11 -270,11l-1436 0 104 -182c56,16 113,26 171,30 58,5 148,8 270,8l553 0c87,0 146,-3 176,-8 25,-5 46,-12 61,-21 16,-10 34,-25 54,-46l79 -85c26,-28 35,-46 25,-52 -9,-7 -47,-11 -114,-11l-456 0c-116,0 -203,4 -261,12z" class="fil6"/>
  <path d="M10492 27951l-8563 354c3,88 45,130 127,127 24,0 46,10 61,27 68,81 148,135 243,163 671,202 1262,684 1965,767 1061,127 2062,215 3120,365 66,9 147,11 244,4 113,-7 195,2 246,27l9277 -475c960,-47 1911,-116 2883,-137 1037,-24 2074,-151 3106,-158 603,-4 1188,-71 1761,149 1309,503 2614,1014 3916,1532 25,9 48,8 71,-4l1046 -551 75 -67 -3606 -1385 -38 36 -5637 327c-336,-3 -670,54 -1004,41 -347,-15 -693,33 -1040,31 -190,-1 -379,9 -568,28 -57,5 -113,-5 -166,-30l-2 -1 -2 -1 -1 -1 -2 -1 -2 -1 -2 -1 -2 -1 -1 -1 -1 0 -2 -1 -2 -1 -2 -1 -2 -1 -2 -1 -2 -1 -2 -1 0 0 -2 -1 -2 -1 -2 -1 -2 -1 -2 -1 -2 -1 -2 -1 -1 0 -1 -1 -2 -1 -2 0 -2 -1 -2 -1 -2 -1 -2 -1 -2 -1 0 0 -2 -1 -2 -1 -2 -1 -2 -1 -2 -1 -2 -1 -2 -1 -1 0 -1 -1 -2 -1 -2 -1 -2 -1 -2 -1 -2 -1 -2 -1 -2 0 0 -1 -2 -1 -2 -1 -2 -1 -2 -1 -2 0 -2 -1 -2 -1 0 0 -2 -1 -2 -1 -2 -1 -2 -1 -2 -1 -2 -1 -2 -1 -1 -1 -1 0 -2 -1 -2 -1 -2 -1 -2 -1c-275,-131 -551,-258 -824,-391 -219,-107 -438,-215 -652,-331 -121,-66 -366,-181 -403,-334 -3,-12 -5,-25 -6,-37 -7,-73 15,-142 55,-194 -438,71 -896,234 -1330,381l1248 592c91,43 162,132 143,248 -19,120 -111,175 -213,183 -746,62 -1494,112 -2241,148 -362,17 -812,-293 -1142,-473 -508,179 -1018,351 -1531,515 -205,66 -417,103 -631,110 -632,23 -2374,73 -3007,89 -355,10 -254,-43 85,-160l3562 -1231 -505 -224zm10526 -100l0 0 0 0 48 -39 204 -164 -21 0 -4 2 -2 1 -4 2 -1 1 -5 2 0 0 0 0 -10 6 -2 1 -4 1 -2 2 -3 1 -3 2 -2 1 -5 2 0 0 -6 3 0 0 -5 3 -1 0 -4 2 -2 1 -3 2 -3 2 -2 1 -4 2 -2 1 -4 2 -1 0 -5 3 0 0 -5 3 -1 0 -4 2 -3 1 -3 2 -3 1 -2 2 -4 2 -1 0 -5 3 0 0 -5 3 -1 0 -5 2 -5 3 -2 1 -3 2 -3 1 -2 1 -5 2 -1 1 -5 2 0 1 -5 2 -1 1 -4 2 -2 1 -3 2 -3 1 -3 1 -3 2 -2 1 -4 2 -1 0 -5 3 0 0 -6 3 -1 0 -4 2 -2 1 -3 2 -3 2 -2 1 -4 2 -1 0 -5 3 -1 0 -5 3 0 0 -4 2 -1 0 -1 1 -6 3 -4 2 -3 1 -2 1 -4 2 -1 1 -5 2 -63 32 -4 2 -1 1 -6 2c-340,171 -746,211 -1140,235l590 177 134 40 520 -419z" class="fil3"/>
  <path d="M41906 49568c-2053,268 -4126,480 -6218,638 -156,11 -385,23 -687,34 -466,16 -966,72 -1391,76 -313,3 -625,-6 -936,10 -1347,71 -2682,25 -4029,-3 -552,-11 -1211,-77 -1819,-87 -411,-6 -1096,-232 -1656,-191 -1062,77 -2123,162 -3184,254 -154,13 -423,4 -623,64 -697,212 -635,856 -1601,765 -735,-69 -1477,-174 -2213,-112 -1028,85 -2052,196 -3072,333l-1344 203c-85,13 -148,85 -148,170 -3,306 644,283 867,311 4906,560 9704,1464 14416,2921 24,8 48,8 73,0 4446,-1439 9209,-2990 13204,-4183 246,-74 331,-122 462,-365 253,-468 620,-466 1089,-546 199,-30 790,-136 927,-308 14,-17 22,-39 22,-62 0,-41 -26,-78 -64,-93 -147,-54 -307,-68 -480,-41 -514,80 -1046,151 -1595,212z" class="fil1"/>
  <path d="M33396 52167c-1986,323 -4082,379 -5736,176 -3050,-375 -6098,-800 -9154,-1110 -301,-31 -602,-33 -904,-8 -1306,108 -2607,260 -3904,455 -113,17 -226,24 -340,21 -17,0 -28,7 -34,22 -2,6 -4,12 -6,18 -2,5 0,8 5,8 5070,582 10078,1503 14969,2975 24,7 48,7 72,-1 3637,-1205 7286,-2370 10948,-3496 81,-25 79,-30 -4,-17 -1971,317 -3942,636 -5912,957z" class="fil2"/>
  <path d="M34019 50516c-1682,96 -3388,50 -5071,44 -370,-1 -1126,-47 -2267,-137 -524,-41 -1107,-209 -1692,-158 -959,83 -1919,162 -2879,236 -240,18 -479,47 -718,86 -23,4 -23,7 0,10 2112,266 4225,527 6339,784 2194,267 4294,179 6469,-165 2583,-410 5165,-828 7745,-1254 189,-31 338,-169 490,-197 369,-64 736,-134 1103,-209 6,-1 10,-6 10,-12 0,-7 -5,-12 -12,-12 0,0 -1,0 -2,0 -257,27 -572,86 -769,115 -3057,440 -5743,698 -8746,869z" class="fil3"/>
  <path d="M7335 64190l446 -1165 170 0 473 1165 -175 0 -135 -353 -490 0 -126 353 -163 0zm335 -478l396 0 -121 -323c-37,-98 -64,-179 -84,-243 -16,76 -37,150 -64,224l-127 342zm1052 478l0 -1028 -384 0 0 -137 922 0 0 137 -384 0 0 1028 -154 0zm701 0l0 -1165 840 0 0 137 -686 0 0 358 642 0 0 136 -642 0 0 397 714 0 0 137 -868 0zm1079 0l0 -1165 158 0 611 914 0 -914 148 0 0 1165 -158 0 -611 -914 0 914 -148 0zm2005 -409l155 39c-33,127 -91,223 -174,289 -84,67 -186,100 -308,100 -125,0 -227,-25 -305,-77 -79,-51 -138,-125 -179,-221 -41,-97 -62,-201 -62,-312 0,-121 23,-227 69,-317 47,-91 113,-159 198,-206 85,-47 179,-70 282,-70 116,0 214,29 293,89 80,59 135,142 166,250l-151 35c-27,-84 -66,-146 -117,-184 -52,-39 -116,-58 -194,-58 -89,0 -164,21 -224,64 -60,43 -102,100 -126,172 -24,73 -37,147 -37,224 0,99 15,185 44,259 28,74 73,129 134,166 60,36 126,54 197,54 86,0 158,-25 218,-74 60,-50 100,-124 121,-222zm371 409l0 -1165 155 0 0 1165 -155 0zm379 -567c0,-193 52,-344 156,-453 103,-110 237,-164 401,-164 108,0 205,26 291,77 86,51 152,123 198,214 45,92 68,196 68,312 0,118 -24,224 -72,317 -48,93 -115,164 -202,211 -88,48 -182,72 -283,72 -110,0 -208,-27 -294,-79 -87,-53 -152,-125 -197,-217 -44,-91 -66,-188 -66,-290zm159 3c0,140 38,250 113,330 75,81 170,121 284,121 116,0 211,-40 286,-122 75,-81 112,-196 112,-346 0,-94 -16,-177 -48,-248 -32,-70 -79,-125 -140,-164 -62,-38 -131,-58 -208,-58 -109,0 -202,38 -281,112 -79,75 -118,200 -118,375zm1151 564l0 -1165 158 0 611 914 0 -914 148 0 0 1165 -158 0 -611 -914 0 914 -148 0zm1234 -290l-44 -617 0 -258 178 0 0 258 -41 617 -93 0zm-37 290l0 -163 164 0 0 163 -164 0zm489 -290l-44 -617 0 -258 177 0 0 258 -40 617 -93 0zm-37 290l0 -163 164 0 0 163 -164 0zm879 0l0 -1165 231 0 275 824c25,77 44,135 56,173 13,-42 34,-105 62,-187l280 -810 206 0 0 1165 -148 0 0 -974 -339 974 -139 0 -336 -992 0 992 -148 0zm1361 0l0 -1165 840 0 0 137 -686 0 0 358 642 0 0 136 -642 0 0 397 714 0 0 137 -868 0zm1081 0l0 -1165 401 0c91,0 160,6 207,17 67,15 124,43 171,83 62,52 107,119 138,199 30,81 46,173 46,277 0,89 -11,167 -31,235 -21,68 -48,125 -80,170 -32,45 -68,80 -106,105 -38,26 -85,45 -139,59 -54,13 -117,20 -187,20l-420 0zm154 -137l249 0c76,0 136,-7 180,-21 44,-15 78,-35 104,-61 37,-36 65,-86 86,-148 20,-61 30,-136 30,-224 0,-122 -20,-216 -60,-282 -40,-65 -88,-109 -145,-131 -41,-16 -108,-24 -199,-24l-245 0 0 891zm1046 137l0 -1165 155 0 0 1165 -155 0zm426 0l0 -1165 401 0c90,0 160,6 207,17 67,15 124,43 171,83 62,52 107,119 138,199 30,81 45,173 45,277 0,89 -10,167 -30,235 -21,68 -48,125 -80,170 -32,45 -68,80 -106,105 -38,26 -85,45 -139,59 -54,13 -117,20 -187,20l-420 0zm154 -137l249 0c76,0 136,-7 180,-21 44,-15 78,-35 104,-61 37,-36 65,-86 85,-148 21,-61 31,-136 31,-224 0,-122 -20,-216 -60,-282 -40,-65 -88,-109 -145,-131 -41,-16 -108,-24 -199,-24l-245 0 0 891zm892 137l447 -1165 169 0 474 1165 -175 0 -135 -353 -490 0 -126 353 -164 0zm335 -478l397 0 -121 -323c-37,-98 -65,-179 -84,-243 -16,76 -37,150 -64,224l-128 342zm827 104l145 -13c7,58 23,106 48,144 25,37 64,67 117,91 53,23 112,34 179,34 58,0 110,-8 155,-26 45,-17 78,-42 100,-72 22,-31 33,-64 33,-100 0,-36 -10,-68 -31,-95 -21,-27 -56,-50 -105,-69 -31,-12 -100,-31 -208,-56 -107,-26 -181,-50 -224,-73 -56,-29 -97,-66 -124,-109 -27,-43 -41,-91 -41,-145 0,-59 17,-114 50,-165 34,-51 82,-90 146,-116 64,-27 136,-40 214,-40 86,0 162,14 228,42 66,27 117,68 152,122 36,54 54,116 57,184l-148 11c-8,-73 -34,-129 -80,-166 -46,-38 -114,-57 -203,-57 -93,0 -161,18 -204,52 -43,34 -64,75 -64,123 0,42 15,76 45,103 30,27 107,55 233,83 125,29 211,54 257,75 68,31 118,70 150,118 32,48 48,103 48,165 0,62 -17,120 -53,175 -35,55 -86,97 -152,128 -67,30 -141,45 -224,45 -106,0 -194,-15 -265,-46 -71,-31 -126,-77 -167,-138 -41,-62 -62,-132 -64,-209zm1585 374l0 -1165 158 0 611 914 0 -914 148 0 0 1165 -158 0 -611 -914 0 914 -148 0zm1129 -567c0,-193 52,-344 156,-453 103,-110 237,-164 402,-164 107,0 204,26 290,77 87,51 152,123 198,214 45,92 68,196 68,312 0,118 -24,224 -72,317 -48,93 -115,164 -202,211 -88,48 -182,72 -283,72 -110,0 -208,-27 -294,-79 -86,-53 -152,-125 -196,-217 -45,-91 -67,-188 -67,-290zm159 3c0,140 38,250 113,330 76,81 170,121 284,121 116,0 211,-40 286,-122 75,-81 112,-196 112,-346 0,-94 -16,-177 -48,-248 -32,-70 -79,-125 -140,-164 -62,-38 -131,-58 -208,-58 -109,0 -202,38 -281,112 -78,75 -118,200 -118,375zm1554 190l145 -13c7,58 23,106 48,144 25,37 64,67 117,91 53,23 112,34 178,34 59,0 111,-8 156,-26 45,-17 78,-42 100,-72 22,-31 33,-64 33,-100 0,-36 -10,-68 -31,-95 -22,-27 -57,-50 -105,-69 -31,-12 -101,-31 -208,-56 -107,-26 -181,-50 -224,-73 -56,-29 -97,-66 -124,-109 -27,-43 -41,-91 -41,-145 0,-59 17,-114 50,-165 33,-51 82,-90 146,-116 64,-27 135,-40 214,-40 86,0 162,14 228,42 66,27 116,68 152,122 35,54 54,116 57,184l-148 11c-8,-73 -35,-129 -80,-166 -46,-38 -114,-57 -203,-57 -94,0 -162,18 -204,52 -43,34 -64,75 -64,123 0,42 15,76 45,103 30,27 107,55 232,83 126,29 212,54 258,75 68,31 118,70 150,118 32,48 48,103 48,165 0,62 -17,120 -53,175 -35,55 -86,97 -152,128 -67,30 -141,45 -225,45 -105,0 -193,-15 -264,-46 -71,-31 -127,-77 -167,-138 -41,-62 -62,-132 -64,-209zm1898 -791l154 0 0 673c0,117 -13,210 -40,279 -26,68 -74,124 -143,167 -69,43 -159,65 -271,65 -109,0 -198,-19 -267,-56 -69,-38 -119,-92 -148,-163 -30,-72 -45,-169 -45,-292l0 -673 155 0 0 672c0,102 9,176 28,224 19,48 51,85 96,111 46,26 102,39 168,39 112,0 193,-26 241,-77 48,-52 72,-150 72,-297l0 -672zm419 1165l0 -1165 786 0 0 137 -631 0 0 363 546 0 0 136 -546 0 0 529 -155 0zm1011 0l0 -1165 155 0 0 1165 -155 0zm1255 -409l155 39c-32,127 -90,223 -174,289 -84,67 -186,100 -307,100 -126,0 -228,-25 -306,-77 -79,-51 -138,-125 -179,-221 -41,-97 -62,-201 -62,-312 0,-121 23,-227 70,-317 46,-91 112,-159 197,-206 85,-47 180,-70 282,-70 116,0 214,29 293,89 80,59 135,142 166,250l-151 35c-27,-84 -66,-146 -117,-184 -51,-39 -116,-58 -194,-58 -89,0 -164,21 -224,64 -59,43 -102,100 -126,172 -24,73 -36,147 -36,224 0,99 14,185 43,259 28,74 73,129 134,166 60,36 126,54 197,54 86,0 159,-25 218,-74 60,-50 100,-124 121,-222zm371 409l0 -1165 155 0 0 1165 -155 0zm429 0l0 -1165 841 0 0 137 -686 0 0 358 642 0 0 136 -642 0 0 397 714 0 0 137 -869 0zm1080 0l0 -1165 158 0 611 914 0 -914 148 0 0 1165 -158 0 -611 -914 0 914 -148 0zm1472 0l0 -1028 -384 0 0 -137 922 0 0 137 -384 0 0 1028 -154 0zm700 0l0 -1165 841 0 0 137 -686 0 0 358 642 0 0 136 -642 0 0 397 713 0 0 137 -868 0zm1078 0l0 -1165 231 0 275 824c26,77 44,135 56,173 13,-42 34,-105 62,-187l280 -810 207 0 0 1165 -148 0 0 -974 -340 974 -139 0 -336 -992 0 992 -148 0zm1361 0l0 -1165 841 0 0 137 -686 0 0 358 642 0 0 136 -642 0 0 397 713 0 0 137 -868 0zm1080 0l0 -1165 158 0 611 914 0 -914 148 0 0 1165 -159 0 -610 -914 0 914 -148 0zm1471 0l0 -1028 -383 0 0 -137 922 0 0 137 -384 0 0 1028 -155 0zm701 0l0 -1165 841 0 0 137 -687 0 0 358 643 0 0 136 -643 0 0 397 714 0 0 137 -868 0zm1800 0l0 -1028 -384 0 0 -137 922 0 0 137 -384 0 0 1028 -154 0zm700 0l0 -1165 841 0 0 137 -686 0 0 358 642 0 0 136 -642 0 0 397 713 0 0 137 -868 0zm1031 -374l145 -13c6,58 22,106 48,144 25,37 64,67 117,91 52,23 112,34 178,34 59,0 111,-8 156,-26 45,-17 78,-42 100,-72 22,-31 33,-64 33,-100 0,-36 -10,-68 -32,-95 -21,-27 -56,-50 -104,-69 -32,-12 -101,-31 -208,-56 -107,-26 -182,-50 -224,-73 -56,-29 -97,-66 -124,-109 -28,-43 -41,-91 -41,-145 0,-59 17,-114 50,-165 33,-51 82,-90 146,-116 64,-27 135,-40 214,-40 86,0 162,14 228,42 66,27 116,68 152,122 35,54 54,116 57,184l-148 11c-8,-73 -35,-129 -81,-166 -45,-38 -113,-57 -202,-57 -94,0 -162,18 -204,52 -43,34 -64,75 -64,123 0,42 15,76 45,103 30,27 107,55 232,83 125,29 211,54 258,75 67,31 118,70 150,118 32,48 48,103 48,165 0,62 -18,120 -53,175 -36,55 -86,97 -153,128 -66,30 -141,45 -224,45 -105,0 -193,-15 -264,-46 -71,-31 -127,-77 -167,-138 -41,-62 -62,-132 -64,-209zm1431 374l0 -1028 -384 0 0 -137 922 0 0 137 -384 0 0 1028 -154 0zm700 0l0 -1165 841 0 0 137 -686 0 0 358 642 0 0 136 -642 0 0 397 713 0 0 137 -868 0zm954 0l446 -1165 170 0 474 1165 -176 0 -134 -353 -490 0 -127 353 -163 0zm335 -478l397 0 -122 -323c-36,-98 -64,-179 -83,-243 -16,76 -38,150 -65,224l-127 342zm877 478l0 -1165 401 0c91,0 160,6 207,17 67,15 124,43 171,83 62,52 107,119 138,199 30,81 46,173 46,277 0,89 -11,167 -31,235 -21,68 -47,125 -80,170 -32,45 -67,80 -106,105 -38,26 -85,45 -139,59 -54,13 -117,20 -187,20l-420 0zm154 -137l249 0c76,0 137,-7 180,-21 44,-15 78,-35 104,-61 37,-36 65,-86 86,-148 20,-61 30,-136 30,-224 0,-122 -20,-216 -60,-282 -40,-65 -88,-109 -145,-131 -41,-16 -108,-24 -199,-24l-245 0 0 891zm893 137l446 -1165 170 0 473 1165 -175 0 -135 -353 -490 0 -126 353 -163 0zm334 -478l397 0 -121 -323c-37,-98 -64,-179 -84,-243 -16,76 -37,150 -64,224l-128 342zm827 104l145 -13c7,58 23,106 48,144 25,37 64,67 117,91 53,23 112,34 179,34 58,0 110,-8 155,-26 45,-17 78,-42 100,-72 22,-31 33,-64 33,-100 0,-36 -10,-68 -31,-95 -21,-27 -56,-50 -105,-69 -31,-12 -100,-31 -207,-56 -107,-26 -182,-50 -225,-73 -56,-29 -97,-66 -124,-109 -27,-43 -41,-91 -41,-145 0,-59 17,-114 50,-165 34,-51 82,-90 146,-116 64,-27 136,-40 214,-40 86,0 162,14 228,42 66,27 117,68 152,122 36,54 55,116 57,184l-148 11c-8,-73 -34,-129 -80,-166 -46,-38 -114,-57 -203,-57 -93,0 -161,18 -204,52 -42,34 -64,75 -64,123 0,42 15,76 45,103 30,27 107,55 233,83 125,29 211,54 257,75 68,31 118,70 150,118 32,48 48,103 48,165 0,62 -17,120 -53,175 -35,55 -86,97 -152,128 -67,30 -141,45 -224,45 -105,0 -194,-15 -265,-46 -71,-31 -126,-77 -167,-138 -40,-62 -62,-132 -64,-209z" class="fil6"/>
 </g>
</svg>